<?xml version="1.0" encoding="UTF-8"?>
<svg width="109px" height="122px" viewBox="0 0 109 122" version="1.1" xmlns="http://www.w3.org/2000/svg" xmlns:xlink="http://www.w3.org/1999/xlink">
    <!-- Generator: Sketch 57.1 (83088) - https://sketch.com -->
    <title>distrokid_gremlin</title>
    <desc>Created with Sketch.</desc>
    <defs>
        <polygon id="path-1" points="0 0.629 108.96 0.629 108.96 121.999845 0 121.999845"></polygon>
    </defs>
    <g id="Design" stroke="none" stroke-width="1" fill="none" fill-rule="evenodd">
        <g id="Home" transform="translate(-880.000000, -752.000000)">
            <g id="distrokid_gremlin" transform="translate(880.000000, 752.000000)">
                <g id="Group-4">
                    <mask id="mask-2" fill="white">
                        <use xlink:href="#path-1"></use>
                    </mask>
                    <g id="Clip-2"></g>
                    <path d="M108.613,46.687 C111.01,65.486 101.989,74.836 85.534,78.856 C80.105,80.182 75.606,81.846 71.65,84.057 C72.563,85.821 74.706,87.688 77.144,88.733 C86.6,92.282 74.024,103.972 61.912,91.607 C59.61,93.423 58.25,95.03 55.016,98.476 C57.783,90.544 52.969,84.153 48.398,83.966 C55.467,87.056 58.226,94.012 43.281,111.249 C36.661,118.884 27.521,123.163 22.173,121.723 C17.593,120.49 15.653,114.92 22.043,105.255 C20.843,108.863 23.057,110.625 25.563,109.855 C30.706,108.276 37.84,96.024 34.315,95.029 C30.682,94.004 24.758,98.16 18.159,107.063 C19.584,103.037 22.414,98.432 26.11,94.754 C31.686,89.206 37.428,87.832 40.925,89.007 C42.971,89.695 45.678,95.145 37.327,107.164 C46.824,95.79 43.893,90.637 42.422,89.13 C38.499,85.11 29.874,85.262 22.958,86.099 C12.571,87.729 14.131,73.457 32.027,74.898 C32.044,64.708 15.864,60.582 10.369,59.12 C2.244,57.442 1.768,45.878 10.258,46.917 L17.02,46.099 C19.917,45.516 20.345,42.418 16.572,42.264 L7.682,41.997 C-1.576,41.694 -3.457,27.789 7.563,26.265 L13.943,25.441 C19.924,24.441 19.229,20.047 14.502,20.134 C8.063,23.462 3.137,15.283 12.978,11.055 C51.612,-5.545 101.649,-7.947 108.613,46.687" id="Fill-1" fill="#6B843F" mask="url(#mask-2)"></path>
                    <path d="M37.794,82.538 C48.496,80.891 56.473,84.005 56.956,93.51 C58.207,92.136 59.625,90.943 61.277,90.275 L62.092,89.946 L62.707,90.573 C65.67,93.598 69.875,96.242 74.29,95.697 C75.539,95.543 76.852,95.101 77.829,94.285 C78.402,93.807 78.965,93.09 78.966,92.307 C78.968,91.057 77.506,90.234 76.512,89.835 C74.107,88.868 71.548,86.873 70.341,84.545 L63.456,87.84 C71.395,82.482 68.015,82.73 58.351,79.147 C63.931,80.12 73.89,81.231 85.079,77.465 C101.659,73.414 109.389,64.149 107.169,46.737 C105.14,30.82 98.877,15.836 84.231,7.797 C63.438,-3.616 34.019,3.266 13.353,12.145 C11.74,12.839 9.81,13.98 8.963,15.593 C8.526,16.425 8.399,17.39 8.9,18.224 C9.921,19.924 12.251,19.63 13.757,18.852 C18.63,17.253 25.433,16.321 28.995,17.136 C20.433,17.575 20.65,20.452 19.84,23.047 C19.252,24.61 17.47,26.174 13.969,26.627 L7.588,27.45 C-1.791,28.662 -0.14,40.337 7.578,40.569 L16.468,40.836 C17.982,40.882 26.927,41.371 28.365,44.425 C24.432,43.077 22.387,43.35 20.304,44.964 C19.9,46.097 18.786,47.074 17.035,47.286 L10.114,48.123 L9.955,48.104 C8.44,47.919 6.729,48.142 5.836,49.53 C4.98,50.857 5.19,52.676 5.832,54.044 C6.737,55.966 8.48,57.243 10.528,57.727 C19.31,59.8 39.235,67.654 44.901,73.251 C33.037,67.849 33.201,71.695 33.197,74.784 L33.194,76.204 L31.779,76.09 C27.976,75.784 23.144,76.107 19.957,78.468 C18.667,79.425 17.135,81.283 17.824,83.009 C18.531,84.782 21.063,84.89 22.643,84.682 C26.997,84.108 40.31,83.951 43.901,88.254 C49.681,95.53 38.982,107.806 33.143,112.549 C35.454,108.537 39.828,102.773 41.177,96.98 C41.614,95.103 42.012,91.869 40.348,90.425 C39.314,89.527 37.756,89.613 36.507,89.892 C33.956,90.462 31.237,92.104 29.121,93.586 C25.647,96.019 22.619,99.598 20.259,103.555 C23.496,99.422 28.474,94.128 32.568,93.513 C33.704,93.342 34.939,93.455 35.752,94.362 C36.948,95.696 36.474,97.909 35.948,99.427 C35.22,101.526 33.961,103.64 32.63,105.411 C30.993,107.59 28.47,110.237 25.833,111.136 C24.633,111.544 23.179,111.669 22.148,110.789 C21.45,110.193 21.192,109.355 21.174,108.489 C20.455,109.792 19.879,111.146 19.529,112.517 C18.97,114.714 18.94,117.354 20.598,119.108 C22.871,121.512 26.866,120.887 29.627,119.853 C35.446,117.676 40.766,112.433 44.578,107.684 C47.899,103.547 54.821,93.888 52.238,88.243 C50.164,83.71 42.491,83.183 37.794,82.538" id="Fill-3" fill="#C0D441" mask="url(#mask-2)"></path>
                </g>
                <path d="M99.395,38.958 C102.133,38.958 103.009,43.306 102.332,45.153 L101.592,45.153 C101.599,45.019 101.457,40.432 99.395,40.432 C97.333,40.432 97.191,45.019 97.198,45.153 L96.458,45.153 C95.78,43.306 96.657,38.958 99.395,38.958" id="Fill-5" fill="#6B843F"></path>
                <path d="M66.104,38.958 C68.842,38.958 69.719,43.306 69.041,45.153 L68.302,45.153 C68.308,45.019 68.167,40.432 66.104,40.432 C64.043,40.432 63.901,45.019 63.907,45.153 L63.168,45.153 C62.49,43.306 63.366,38.958 66.104,38.958" id="Fill-6" fill="#6B843F"></path>
                <path d="M100.101,50.705 C101.188,51.449 101.793,52.65 101.924,54.214 C102.104,56.358 101.711,58.474 100.694,60.376 C97.553,66.246 89.677,68.573 83.468,68.781 C77.346,68.986 69.661,67.263 66.008,61.873 C64.458,59.588 63.885,56.949 64.115,54.214 C64.278,52.276 65.166,50.897 66.796,50.252 C67.817,49.847 68.49,49.932 69.525,49.927 C71.275,49.918 72.647,50.144 74.585,50.482 C74.788,50.482 74.992,50.512 75.197,50.561 C77.745,51.169 80.398,51.511 83.02,51.511 C85.605,51.511 88.221,51.178 90.738,50.587 L90.764,50.539 L91.378,50.432 C93.712,50.025 95.212,49.78 97.494,49.895 C98.421,49.809 99.367,50.201 100.101,50.705" id="Fill-7" fill="#6B843F"></path>
                <path d="M91.603,51.725 L91.599,51.732 L91.038,51.863 C88.419,52.479 85.712,52.823 83.02,52.823 C80.29,52.823 77.546,52.469 74.892,51.837 C74.763,51.807 74.602,51.801 74.469,51.789 C72.836,51.645 71.163,51.231 69.531,51.239 C68.706,51.243 68.064,51.16 67.279,51.472 C66.023,51.97 65.532,53.024 65.423,54.324 C65.219,56.745 65.721,59.112 67.094,61.137 C70.469,66.117 77.78,67.659 83.424,67.47 C89.13,67.278 96.64,65.172 99.537,59.757 C100.429,58.089 100.774,56.203 100.616,54.323 C100.533,53.33 100.212,52.371 99.36,51.787 C98.838,51.43 98.16,51.194 97.522,51.207 C95.454,51.251 93.648,51.368 91.603,51.725" id="Fill-8" fill="#7B2929"></path>
                <path d="M97.885,51.233 C95.246,51.051 94.245,51.263 91.603,51.725 L91.564,51.795 C93.393,52.016 93.108,58.042 95.197,56.413 C96.55,55.524 97.596,51.907 97.885,51.233 Z M68.193,51.29 C70.794,51.115 71.798,51.327 74.423,51.786 L74.435,51.808 C72.693,52.172 73.211,58.427 71.14,56.811 C69.806,55.853 68.573,52.11 68.193,51.29 L68.193,51.29 Z" id="Fill-9" fill="#BBBDBB"></path>
                <path d="M93.127,51.461 C94.161,52.954 94.258,56.891 95.994,55.536 L96.023,55.517 C96.965,54.104 97.658,51.762 97.885,51.233 C95.82,51.091 94.758,51.189 93.127,51.461 Z M69.324,51.235 C71.148,51.189 72.209,51.399 74.403,51.782 L74.386,51.821 C73.299,52.126 73.117,54.784 72.573,56.199 C72.392,56.206 72.183,56.126 71.937,55.934 C70.876,55.172 69.879,52.649 69.324,51.235 L69.324,51.235 Z" id="Fill-10" fill="#FFFFFE"></path>
                <path d="M83.591,61.878 C87.47,61.878 90.899,62.864 92.974,64.374 C89.929,65.803 86.369,66.452 83.394,66.552 C80.329,66.654 76.675,66.225 73.524,64.936 C75.471,63.114 79.249,61.878 83.591,61.878" id="Fill-11" fill="#D8232A"></path>
            </g>
        </g>
    </g>
</svg>