<?xml version="1.0" encoding="UTF-8"?>
<svg width="237px" height="171px" viewBox="0 0 237 171" version="1.1" xmlns="http://www.w3.org/2000/svg" xmlns:xlink="http://www.w3.org/1999/xlink">
    <!-- Generator: Sketch 57.1 (83088) - https://sketch.com -->
    <title>Logo</title>
    <desc>Created with Sketch.</desc>
    <g id="Design" stroke="none" stroke-width="1" fill="none" fill-rule="evenodd">
        <g id="Home" transform="translate(-602.000000, -318.000000)">
            <g id="Logo-with-bg" transform="translate(584.000000, 298.000000)">
                <g id="Logo" transform="translate(18.000000, 20.000000)">
                    <path d="M147.907379,163.016009 C148.355456,162.27668 148.355456,162.424546 149.998404,161.980948 C149.849045,161.389484 150.147763,161.685216 149.027571,161.093753 C149.027571,161.01982 149.027571,161.01982 149.10225,160.945887 L149.326289,160.206557 C149.998404,160.428356 150.073084,160.724088 150.147763,161.611283 L150.446481,161.53735 C150.894558,161.611283 150.521161,162.350613 152.01475,162.27668 C151.865391,162.572411 151.790712,162.720277 151.940071,163.163875 L152.836224,163.385674 C152.388148,164.198936 152.761545,163.977137 153.657699,164.346802 C154.404494,164.568601 153.881737,164.716467 154.777891,164.938266 C154.479173,165.529729 154.777891,164.7904 154.553853,165.233998 C154.255135,165.751528 154.404494,165.899394 154.105776,166.342992 L153.209622,167.30412 C153.209622,167.30412 153.134942,167.378053 153.134942,167.378053 C152.686866,167.230187 152.836224,167.082321 152.537507,167.082321 L151.716032,167.30412 C151.716032,167.30412 151.641353,167.230187 151.641353,167.230187 C151.641353,167.230187 151.566673,167.156254 151.566673,167.156254 L151.342635,166.712657 C150.147763,167.008388 150.371802,167.156254 150.222443,167.525919 L150.147763,167.747718 C150.147763,167.747718 150.147763,167.821651 150.073084,167.895584 C149.849045,167.451986 149.774366,167.30412 149.475648,167.008388 C149.17693,167.230187 149.251609,167.008388 149.251609,167.378053 L149.400968,167.747718 C149.400968,167.747718 149.400968,167.821651 149.400968,167.821651 C149.400968,168.265248 149.17693,168.339181 149.027571,168.782779 C148.430135,168.634913 149.027571,168.856712 148.803532,168.634913 L148.280776,167.969517 C148.355456,167.895584 148.579494,167.673785 148.654174,167.599852 L148.952891,167.156254 C148.056738,166.934455 148.878212,167.230187 148.280776,166.416925 C148.056738,166.121193 147.533981,165.529729 147.459302,164.938266 C147.235263,163.385674 146.861866,163.681406 146.189751,162.572411 C146.488469,162.424546 145.741674,162.27668 146.563148,162.498479 C146.637828,162.128814 146.563148,163.237808 147.907379,163.163875 L147.907379,163.016009 Z M151.379875,162.778018 C152.051394,162.113811 150.596436,160.563994 152.722914,159.124879 L153.058673,158.903476 C153.058673,158.903476 153.618273,158.571373 153.618273,158.571373 C154.065952,158.34997 153.618273,158.34997 154.513632,158.239269 C155.85667,157.907165 157.087789,158.571373 157.759308,159.456982 C158.206987,160.010488 158.206987,159.567683 158.430827,159.678384 C159.438106,163.220823 157.647388,164.106432 157.423548,164.438536 C156.975869,164.992042 157.199708,165.102743 157.087789,165.545548 C156.19243,165.434847 155.63283,165.545548 154.961311,165.434847 L152.275234,163.774329 C150.932196,162.667317 151.603715,163.88503 151.267955,162.778018 L151.491795,162.778018 L151.379875,162.778018 Z M212.131733,155.179117 C212.430451,155.474849 213.251925,155.696647 213.774681,155.696647 C213.700002,155.031251 213.401284,155.326983 213.774681,154.809452 C214.148079,155.326983 214.297438,155.77058 215.193591,155.25305 L215.268271,155.474849 C215.865707,156.288111 215.791027,155.474849 216.612502,156.214178 L216.761861,156.288111 C217.284617,156.731709 217.135258,156.805642 217.583335,157.988569 C217.882053,158.727898 217.807373,158.653965 217.807373,159.615094 L217.658014,160.058691 C217.732694,161.093753 217.284617,161.241618 217.583335,162.054881 C216.985899,162.27668 217.209937,161.759149 216.239104,162.720277 C216.015066,162.942076 215.940386,163.016009 215.641668,163.237808 C214.446797,164.05107 215.268271,163.163875 214.820194,164.05107 L214.745515,164.198936 C214.745515,164.198936 214.745515,164.272869 214.670835,164.272869 C214.670835,164.272869 214.596156,164.494668 214.521476,164.568601 C214.521476,164.272869 214.521476,163.755339 214.297438,163.459607 C213.102566,163.607473 213.401284,165.381863 212.430451,165.529729 C212.430451,165.529729 212.430451,165.455796 212.430451,165.381863 C212.355771,164.420735 212.878528,165.307931 213.027886,164.198936 C212.50513,163.829272 212.131733,163.829272 211.384938,163.903205 C210.115387,164.05107 210.414105,163.829272 209.891348,163.977137 C209.368592,166.121193 210.414105,165.086132 210.190066,166.416925 C209.368592,166.195126 209.368592,165.825461 209.293912,165.086132 C209.219233,164.420735 209.069874,164.7904 208.621797,164.198936 L207.949682,164.346802 C208.323079,163.903205 208.547118,163.607473 208.621797,162.868143 C208.17372,163.089942 208.397759,163.089942 208.024361,163.163875 C207.202887,163.385674 206.978848,162.720277 207.576284,162.350613 C208.397759,161.759149 208.845836,161.833082 207.800323,161.01982 C207.277566,161.167685 207.501605,161.167685 207.053528,161.463417 L207.352246,160.724088 C207.800323,158.727898 206.680131,160.650155 207.426925,158.506099 C207.501605,158.210368 207.576284,157.840703 207.576284,157.840703 C207.576284,157.76677 207.576284,157.840703 207.725643,157.618904 C208.621797,156.288111 208.2484,156.731709 209.293912,156.362044 C209.517951,155.77058 209.144553,156.583843 209.293912,156.066312 C210.414105,156.583843 209.069874,155.696647 211.160899,156.50991 C211.534297,156.288111 211.982374,155.992379 212.355771,155.326983 L212.131733,155.179117 Z M160.304173,156.805642 C160.67757,156.50991 160.602891,156.731709 160.67757,156.362044 C160.976288,155.031251 160.229493,155.474849 160.080134,154.735519 C160.005455,154.070123 160.154814,154.51372 160.453532,154.51372 C161.275006,154.51372 161.275006,153.330793 161.797762,153.25686 C162.17116,153.182927 161.349685,153.404726 161.947121,153.25686 C162.469878,153.108994 162.245839,152.887195 162.544557,152.443598 C164.710262,152.591464 166.577249,152.665397 168.817634,152.591464 C170.983338,152.517531 173.074364,152.443598 175.389428,152.443598 C176.136223,152.591464 175.688146,153.626525 177.331094,153.552592 C177.480453,153.552592 177.555133,153.552592 177.704492,153.552592 C178.152569,153.626525 177.779171,153.478659 178.077889,153.700458 C177.629812,153.848324 176.883017,154.144055 176.5843,154.365854 C176.5843,155.105184 176.658979,154.809452 176.808338,155.400916 L177.256415,158.653965 C178.00321,158.506099 178.675325,158.727898 179.272761,159.097563 C178.600646,159.689027 178.451287,158.727898 177.629812,159.467228 C177.480453,158.727898 177.629812,158.875764 177.032376,158.727898 C176.658979,159.097563 176.733659,158.949697 176.808338,159.615094 C176.957697,160.502289 177.032376,160.354423 177.92853,160.871954 C178.525966,161.241618 178.376607,161.241618 178.451287,161.389484 C176.957697,161.01982 177.331094,160.576222 176.210902,160.206557 C175.688146,161.241618 175.240069,161.241618 176.360261,162.646344 C176.5843,162.868143 176.210902,162.27668 176.434941,162.79421 L176.434941,162.942076 C176.658979,163.607473 177.032376,163.016009 177.331094,164.420735 C177.405774,164.7904 177.405774,165.160065 177.405774,165.307931 C177.555133,165.973327 177.704492,165.381863 177.629812,165.751528 C177.107056,166.04726 177.405774,165.973327 176.658979,165.973327 C176.285582,164.864333 176.5843,164.272869 176.285582,163.53354 C175.240069,163.311741 175.389428,163.53354 174.642633,164.05107 C173.6718,164.716467 174.493274,163.977137 173.6718,165.307931 C172.551608,167.230187 173.074364,167.008388 172.476928,167.451986 L171.730133,167.821651 C171.879492,168.708846 172.476928,169.226377 173.298402,169.522109 C174.567954,170.039639 175.314748,169.226377 175.837505,170.409304 C174.418595,170.335371 171.879492,169.743907 170.535262,170.335371 L170.236544,169.669974 C170.087185,169.30031 170.161864,169.30031 169.937826,169.004578 C169.863146,168.930645 169.639108,168.265248 169.26571,169.152444 C168.817634,170.039639 169.489749,169.004578 169.116351,169.522109 C168.892313,169.226377 168.892313,169.078511 168.369557,169.152444 C168.070839,170.55717 169.34039,170.55717 166.726608,170.55717 C166.353211,170.335371 166.577249,170.55717 166.50257,170.113572 C166.278531,169.374243 166.726608,168.782779 166.651929,168.56098 C166.129172,167.673785 165.083659,167.673785 164.187506,168.413114 C164.262185,169.152444 164.411544,169.374243 164.262185,170.113572 C164.262185,170.113572 164.187506,170.039639 164.187506,170.039639 L164.112826,169.81784 C164.038147,169.30031 164.187506,169.226377 163.888788,168.487047 C163.888788,168.487047 163.814108,168.487047 163.814108,168.487047 L163.51539,168.413114 C163.440711,168.413114 163.216672,168.487047 163.141993,168.487047 L162.843275,167.895584 C160.75225,167.673785 161.050967,167.30412 160.528211,167.821651 C160.378852,166.860522 160.67757,167.230187 160.005455,166.342992 C159.632057,165.899394 159.333339,165.603662 159.109301,165.012199 C158.885262,165.307931 158.959942,165.233998 158.511865,165.381863 C158.959942,163.903205 158.063788,164.568601 157.989109,162.79421 L157.615711,162.572411 C157.242314,162.202747 157.615711,162.868143 157.391673,162.27668 C157.466352,162.202747 157.989109,162.054881 158.063788,161.389484 C158.138468,160.354423 157.989109,161.463417 158.362506,160.428356 C157.76507,160.576222 157.989109,160.650155 157.391673,160.798021 C157.76507,160.132624 157.83975,159.984758 158.511865,160.206557 C158.586545,159.541161 158.362506,159.541161 158.735904,159.097563 C159.109301,158.653965 158.735904,159.097563 159.25866,158.727898 C160.602891,157.76677 160.602891,158.136435 160.602891,157.471038 C160.528211,156.657776 160.67757,157.323172 160.080134,156.879575 L160.304173,156.805642 Z M84.803217,152.295732 L75.6923202,152.295732 C73.1532179,152.295732 71.0621924,152.147866 68.5977695,152.147866 C67.3282183,152.147866 66.4320645,152.443598 65.2371928,152.221799 C63.5942443,152 63.2955263,152.443598 61.8766162,152.443598 L49.9278992,152.443598 C47.0153994,152.443598 44.5509765,152.295732 41.7878357,152.295732 C40.2195666,152.295732 39.2487333,152.443598 37.8298232,152.443598 L13.1855943,152.739329 C10.4224535,152.813262 10.7958509,153.035061 8.480787,155.992379 L4.97085138,160.724088 C4.74681293,161.01982 4.74681293,160.945887 4.52277449,161.241618 C4.22405656,161.611283 4.29873604,161.53735 4.0746976,161.907015 L2.43174901,164.420735 C0.490082494,167.599852 -1.60094298,169.30031 1.83431316,169.891773 C2.80514642,170.039639 4.22405656,169.965706 5.12021034,170.113572 C6.91251789,170.335371 15.9487351,170.039639 18.8612349,170.187505 C29.9884776,170.55717 41.2650793,170.483237 52.4670015,170.483237 L73.0038589,170.631103 C75.1695639,170.631103 77.7086662,170.409304 79.7996917,170.705036 C82.7121915,171.148633 90.3294986,170.409304 93.4660368,170.852902 C95.8557802,171.222566 114.301612,170.778969 118.334304,170.778969 L140.58879,170.926835 C141.335584,170.926835 141.410264,170.778969 142.157059,170.778969 L152.537507,170.778969 C153.807058,170.778969 154.479173,170.631103 155.823404,170.631103 C174.194556,170.705036 192.715068,170.335371 211.08622,170.335371 C215.791027,170.335371 219.973078,170.187505 224.752565,170.187505 C226.843591,170.187505 229.606731,170.335371 231.623077,170.187505 C233.863462,170.039639 237,170.483237 237,168.487047 C237,168.117383 236.029167,166.786589 235.805128,166.416925 C234.236859,164.05107 233.639423,163.016009 231.847116,160.428356 L228.33718,155.77058 C228.038462,155.25305 227.889103,155.25305 227.590385,154.809452 C227.216988,154.291921 226.544873,153.25686 225.947437,153.035061 C224.603206,152.443598 204.290387,152.517531 200.332375,152.517531 C198.09199,152.517531 196.225003,152.369665 193.909939,152.369665 C188.159619,152.369665 178.525966,152.665397 173.6718,152.369665 C172.925005,152.295732 172.999684,152.147866 172.25289,152.221799 C171.730133,152.295732 171.431415,152.369665 170.684621,152.369665 C169.564428,152.369665 168.817634,152.221799 167.548082,152.221799 C165.307698,152.221799 163.067313,152.221799 160.826929,152.221799 C158.586545,152.221799 156.644878,152.073933 154.255135,152.073933 C147.68334,152.073933 126.474368,151.778201 122.516355,152.369665 C121.545522,152.517531 121.022765,152.369665 120.35065,152.295732 C119.305137,152.147866 119.230458,152.517531 118.110266,152.369665 C116.990073,152.221799 116.990073,152.369665 116.01924,152.443598 L88.0891141,152.147866 C86.819563,152.147866 86.2221271,152.443598 84.9525759,152.443598 L84.803217,152.295732 Z" id="Shape" fill="#FEFEFE"></path>
                    <path d="M39.9248899,115.048979 C39.6248351,115.718733 39.2497666,115.718733 39.1747529,116.686157 C40.2249447,117.13266 39.6998488,116.760574 40.0749173,117.355912 C40.2999584,117.727998 40.0749173,117.579163 40.5249995,117.802415 L40.900068,117.951249 C40.900068,117.951249 40.9750817,117.951249 41.0500954,118.025666 C40.6000132,118.546587 40.0749173,118.174501 40.9750817,119.067507 C40.9750817,119.067507 41.0500954,119.141924 41.0500954,119.141924 L41.2001228,119.290759 C41.4251639,119.588427 40.8250543,119.290759 41.5001776,119.662845 C41.2001228,120.109348 41.2751365,120.109348 40.8250543,120.258182 C40.900068,120.704685 40.9750817,120.927937 41.2751365,121.37444 C40.8250543,121.820943 40.900068,121.597692 40.900068,122.044195 L40.9750817,123.160453 C40.9750817,123.160453 40.900068,123.160453 40.900068,123.23487 C40.7500406,123.904624 40.9750817,122.788367 40.4499858,123.681373 C40.149931,124.202293 40.5249995,123.904624 39.9999036,124.351128 C39.6248351,124.723214 39.9248899,124.202293 39.399794,124.872048 C39.2497666,125.0953 39.0997392,125.318551 38.9497118,125.690637 C39.2497666,126.285975 39.399794,125.765054 39.6248351,126.285975 C38.7996844,126.806895 38.9497118,126.211557 38.1245611,126.583643 C37.6744789,126.806895 37.3744241,127.327815 37.0743693,127.625484 C35.649109,128.816159 35.9491638,127.848736 35.8741501,129.783583 L35.7991364,130.304503 C35.5740953,129.709165 35.4240679,129.113828 34.9739857,128.890576 C34.5239035,128.667325 34.5239035,128.890576 32.8736021,129.113828 C31.898424,129.262662 31.4483418,129.485914 30.6982048,129.485914 C30.39815,128.964994 30.6982048,129.188245 30.2481226,128.890576 C28.5978212,129.485914 28.5228075,129.262662 27.9226979,130.974258 C27.9226979,130.974258 27.397602,130.751006 28.147739,129.634748 C28.4477938,129.188245 28.7478486,129.262662 28.897876,128.51849 C28.5228075,128.146404 28.147739,127.848736 27.5476294,127.99757 L33.5487254,118.99309 C33.9237939,118.397752 34.2988624,117.802415 34.7489446,117.207077 L36.8493282,114.007138 C37.2994104,113.486218 36.9243419,113.783886 37.3744241,113.635052 C37.8245063,114.528058 37.2243967,113.486218 37.4494378,114.304807 C37.4494378,114.304807 37.4494378,114.379224 37.4494378,114.379224 L38.1995748,114.974561 C38.9497118,115.569899 39.3247803,115.27223 39.9248899,115.123396 L39.9248899,115.048979 Z M86.215487,46.5711992 C86.8406011,45.3000563 86.572695,46.3896074 87.4657153,45.4816482 C88.0015274,44.9368726 87.1085072,45.5724441 88.0908295,45.1184645 L89.4303598,44.573689 C89.4303598,44.573689 89.5196618,44.482893 89.5196618,44.482893 C90.7698902,43.7565257 88.4480375,44.573689 89.7875679,44.3013012 C89.966172,44.6644849 89.6089639,44.3920971 89.7875679,44.7552808 C91.2164003,45.1184645 92.1094205,45.8448318 92.2880246,47.4791584 L92.7345347,48.6595054 C91.4843064,49.4766686 93.0917428,49.4766686 90.8591922,50.8386074 C90.5912861,51.0201993 90.7698902,50.8386074 90.5019841,51.1109952 C89.7875679,51.6557707 90.5912861,51.2925871 89.966172,51.2925871 C88.8052456,51.383383 89.8768699,51.7465667 88.8052456,51.5649748 C88.2694335,51.4741789 87.6443193,50.9294034 86.9299031,50.4754238 L86.7512991,50.2938319 C85.8582789,49.5674646 86.394091,49.9306482 86.1261849,49.022689 C85.8582789,47.933138 86.0368829,48.6595054 85.2331647,48.1147298 L86.215487,46.6619951 L86.215487,46.5711992 Z M85.6832469,74.0451059 C85.6082332,73.67302 85.908288,73.9706887 85.5332195,73.7474372 C84.8580962,74.0451059 84.0329455,73.8218544 83.5078496,74.3427747 C82.90774,74.863695 83.2828085,75.3101982 82.7577126,75.7567013 L82.6826989,73.8218544 C82.0825893,73.3753512 82.3826441,73.67302 81.7825345,73.5241856 L80.2822605,72.9288481 C80.1322331,72.8544309 79.9822057,72.8544309 79.8321783,72.7800137 C79.2320687,72.6311793 79.0820413,72.8544309 78.8570002,72.4079277 C78.2568906,72.6311793 78.7069728,72.2590933 78.406918,72.8544309 L77.9568358,71.4405042 C77.3567262,70.7707495 75.4813837,70.9940011 74.4311919,72.4823449 C74.0561234,71.738173 73.8310823,72.0358417 73.8310823,71.1428354 L74.3561782,71.8870074 C74.3561782,71.8870074 74.4311919,72.0358417 74.4311919,72.0358417 C74.4311919,72.0358417 74.5062056,72.1102589 74.5062056,72.1846761 C74.656233,71.8125902 75.0313015,71.366087 75.5563974,71.0684183 C76.156507,70.6963323 76.4565618,70.8451667 76.9816577,70.3986635 L76.3815481,69.2824056 C73.5310275,68.8359025 75.3313563,69.0591541 74.0561234,69.2824056 L73.9811097,68.9103197 C73.0059316,69.7289088 71.7306987,69.1335713 70.9805617,68.6870681 C70.3054384,68.9847369 70.905548,68.5382337 70.6054932,69.2824056 C70.5304795,68.5382337 70.5304795,68.3893993 70.7555206,67.7940618 C72.0307535,67.7940618 72.0307535,67.868479 72.7058768,68.5382337 C74.3561782,68.6126509 74.3561782,67.496393 73.7560686,66.305718 C73.5310275,65.8592148 72.4808357,64.2220366 72.1057672,63.9243678 C72.4808357,62.8825271 73.7560686,61.6174349 74.3561782,60.501177 C75.0313015,59.3105019 75.7064248,58.0454097 76.3815481,56.9291518 C77.1316851,55.7384767 77.8068084,54.5478017 78.5569454,53.505961 C79.3820961,52.3152859 80.2822605,50.3060217 81.1074112,50.7525249 C81.1074112,50.1571873 80.9573838,50.3060217 81.1824249,49.9339358 L81.3324523,50.1571873 C81.9325619,50.8269421 80.8823701,49.9339358 81.4824797,50.3060217 C81.7825345,50.5292733 81.2574386,50.3060217 81.7825345,50.4548561 C81.9325619,50.4548561 82.3826441,50.3804389 82.6076852,50.3804389 C83.4328359,50.3804389 83.5078496,50.6036905 84.1829729,50.7525249 C84.6330551,50.4548561 84.2579866,50.5292733 84.7830825,50.2316045 C84.9331099,50.5292733 85.0081236,52.2408687 85.908288,51.4966968 C85.9833017,52.1664515 85.908288,52.0920343 86.4333839,52.3897031 C86.4333839,51.7199484 86.2083428,50.7525249 86.3583702,50.3060217 C86.3583702,50.3060217 86.7334387,51.6455312 86.8084524,51.7943656 C87.0334935,52.3897031 86.658425,52.0920343 86.5083976,52.7617891 C86.8834661,53.0594578 86.8834661,52.9106234 87.408562,53.133875 C87.2585346,53.7292125 87.5585894,54.3245501 87.6336031,54.9198876 C87.7836305,56.3338143 87.5585894,55.5896423 88.3087264,56.4826486 C88.9838497,56.2593971 88.2337127,56.4826486 88.908836,56.0361455 C89.3589182,56.631483 88.6837949,56.2593971 89.658973,56.8547346 C89.658973,56.8547346 89.7339867,56.9291518 89.7339867,56.9291518 C90.9342059,57.6733237 90.4841237,56.4082315 91.5343155,57.1524034 C91.159247,57.6733237 90.7091648,57.0779862 91.3092744,58.3430784 C91.6093292,59.0128332 91.6093292,59.2360847 92.2094388,59.5337535 C91.6843429,59.7570051 91.9843977,59.5337535 91.6093292,59.8314223 C92.2094388,60.4267598 91.5343155,60.2035082 92.3594662,60.501177 C92.3594662,60.501177 92.4344799,60.4267598 92.4344799,60.4267598 C92.4344799,60.4267598 92.5094936,60.3523426 92.5094936,60.3523426 C92.5094936,60.3523426 92.659521,60.2035082 92.659521,60.129091 C92.8095484,59.9058395 92.5845073,60.0546739 92.8845621,59.9058395 C93.1846169,59.7570051 93.5596854,59.7570051 93.9347539,59.7570051 L93.6346991,60.3523426 C93.6346991,60.3523426 93.5596854,60.4267598 93.5596854,60.4267598 C93.5596854,60.4267598 93.4846717,60.501177 93.4846717,60.501177 C93.4846717,60.501177 93.409658,60.5755942 93.409658,60.5755942 L92.8845621,61.1709317 L93.3346443,62.1383552 L93.8597402,62.063938 C94.2348087,61.8406865 95.1349731,60.3523426 95.5850553,59.6825879 L115.163631,30.5110487 C115.538699,29.9901283 115.463686,29.9157111 115.388672,29.097122 L115.463686,23.1437467 C114.563521,23.4414154 115.088617,23.4414154 114.638535,24.036753 C114.113439,23.8879186 114.33848,23.8879186 113.888398,23.664667 C113.588343,24.036753 113.813384,23.664667 113.738371,24.1111702 L112.988234,24.2600046 C112.988234,24.2600046 112.91322,24.1855874 112.91322,24.1111702 L112.538151,23.5158326 C112.238097,23.5902498 111.48796,24.1855874 111.337932,24.2600046 C111.337932,24.8553421 111.48796,24.6320905 111.48796,25.3018452 L111.112891,25.0041765 C110.812836,24.7065077 110.587795,24.4832561 110.137713,24.3344217 C109.987686,24.9297593 109.612617,25.4506796 109.837658,25.8971828 C109.987686,25.599514 110.137713,25.3018452 110.28774,24.9297593 C110.512782,25.1530109 110.587795,25.2274281 110.437768,25.8227656 C110.437768,25.9716 110.212727,26.4181031 110.062699,26.6413547 C109.612617,26.5669375 110.587795,27.162275 109.912672,26.4925203 L109.612617,26.1948515 C109.612617,26.1948515 109.237549,26.1204344 109.087521,26.0460172 C109.162535,25.0785937 109.312562,25.3762624 109.687631,24.7809249 C109.237549,24.5576733 109.387576,24.7809249 109.087521,24.4088389 C108.412398,23.664667 109.237549,24.3344217 108.187357,23.5902498 C107.737275,23.2925811 108.112343,23.3669983 107.512234,22.5484091 C107.287192,22.3251576 107.362206,22.473992 107.287192,22.1763232 C107.062151,21.3577341 106.612069,20.7623965 105.861932,20.3158934 C105.261823,19.9438074 104.961768,19.4973043 103.836562,19.1996355 C103.836562,19.1996355 102.486316,19.0508011 102.936398,18.3066292 C103.461494,18.3810464 106.387028,20.4647278 107.137165,20.0926418 C108.037329,19.7205559 106.537055,19.8693902 108.637439,18.6787152 C109.687631,18.0833776 109.46259,18.604298 109.612617,17.7857089 C109.087521,17.4880401 109.387576,17.7112917 109.087521,17.6368745 C108.637439,17.5624573 109.087521,17.7112917 108.787466,17.5624573 C108.787466,17.5624573 108.712453,17.5624573 108.712453,17.4880401 C108.712453,17.4880401 108.637439,17.4880401 108.637439,17.4136229 C108.412398,17.2647885 108.112343,17.1903713 108.412398,16.1485306 C110.062699,16.1485306 109.087521,17.3392057 110.137713,17.5624573 L111.037877,17.9345432 C111.713001,18.3810464 111.262919,17.9345432 112.31311,17.9345432 C111.788014,18.9019667 112.31311,19.1252183 113.288288,19.0508011 C113.438316,19.2740527 113.438316,19.2740527 113.363302,19.8693902 C114.788562,19.7205559 114.638535,20.539145 115.313658,19.5717215 C115.313658,19.5717215 115.313658,19.6461387 115.388672,19.6461387 L115.688727,20.2414762 C115.688727,20.2414762 115.763741,20.3158934 115.763741,20.3903106 L115.763741,18.1577948 C114.788562,18.232212 114.038425,18.6787152 113.588343,17.8601261 L113.213275,18.3810464 L111.337932,17.2647885 C111.412946,16.9671198 111.337932,16.297365 111.187905,15.7764447 C111.187905,15.7020275 110.962864,15.10669 110.962864,15.10669 C110.812836,14.362518 112.013056,13.6927633 112.238097,13.171843 C112.388124,12.8741742 112.163083,13.3206773 112.31311,12.9485914 C112.463138,12.5765054 113.813384,12.5020882 114.188453,12.5020882 C114.93859,12.5765054 115.088617,13.4695117 115.763741,12.6509226 C116.288836,9.07889741 115.763741,4.98595186 115.838754,1.41392665 C115.838754,0.372085959 115.913768,0.595337535 115.538699,0 C114.563521,0.223251576 112.388124,3.94411117 111.637987,5.06036905 L110.362754,6.92079885 C110.137713,7.21846761 110.062699,7.44171919 109.762645,7.73938796 C109.46259,8.18589111 109.387576,8.2603083 109.162535,8.70681145 L105.41185,14.2136837 C104.136617,15.9252791 103.086425,17.7857089 101.736179,19.4973043 C99.9358499,21.8786544 98.4355759,24.5576733 96.6352471,26.9390235 L88.6837949,38.4736882 C87.408562,40.1852836 86.3583702,42.1945478 84.9331099,43.831726 C84.6330551,44.203812 84.6330551,44.4270636 84.3330003,44.7991495 L75.6314111,57.3756549 C75.1813289,57.9709925 74.8812741,58.56633 74.4311919,59.1616676 C74.2061508,59.5337535 74.0561234,59.6081707 73.8310823,59.9802567 C73.6060412,60.3523426 73.4560138,60.6500114 73.2309727,60.9476802 L65.4295479,72.1102589 C65.2795205,72.3335105 65.2795205,72.3335105 65.1294931,72.5567621 C64.904452,72.9288481 64.7544246,73.1520996 64.5293835,73.5241856 C63.404178,75.3846154 61.9789177,77.0962108 60.8537122,78.9566406 C60.4786437,79.6263953 60.0285615,79.9984813 59.5784793,80.668236 L50.8768901,93.3191586 C50.0517394,94.5842509 49.2265887,95.6260916 48.401438,96.965601 L43.4505338,104.109651 C43.0004516,104.779406 42.7003968,105.300327 42.2503146,105.895664 C41.9502598,106.26775 41.8752461,106.416584 41.650205,106.863088 L36.6993008,114.155972 C34.8239583,116.834991 33.0986432,119.588427 31.148287,122.267446 L21.0214375,137.076467 C21.0214375,137.150885 20.9464238,137.225302 20.8714101,137.225302 C20.7963964,137.299719 20.7213827,137.374136 20.646369,137.522971 C19.896232,138.639228 17.3457662,142.211254 16.9706977,143.10426 C16.5956292,144.071683 15.4704237,145.411193 16.2955744,146.453034 C16.7456566,146.973954 17.7958484,147.122788 18.5459854,146.899537 C19.5211635,146.601868 44.5757393,134.6207 45.2508626,134.025363 C45.9259859,133.430025 46.151027,133.057939 46.6761229,132.313767 L56.5029176,117.802415 C56.9529998,117.207077 57.1780409,116.61174 57.7031368,116.016402 C59.1283971,114.081555 61.6788629,110.063027 63.1791369,107.830511 C63.404178,107.458425 63.5542054,107.309591 63.8542602,106.937505 L69.9303699,97.9330245 C70.155411,97.6353558 70.3054384,97.4121042 70.6054932,97.0400182 L73.6810549,92.4261523 C74.1311371,91.7563976 74.4311919,91.3843116 74.8812741,90.7145569 C75.3313563,90.0448022 75.7064248,89.5238818 76.156507,88.8541271 C77.3567262,87.0681145 78.4819317,85.2076847 79.7571646,83.4960893 C80.2822605,82.8263346 80.5823153,82.3054142 81.0323975,81.6356595 C81.3324523,81.1147392 85.6082332,75.0869466 85.8332743,74.1939403 L85.6832469,74.0451059 Z" id="Shape" fill="#F9FDFF"></path>
                    <path d="M175.979196,99.6478657 C176.703606,100.372635 176.393144,99.9584813 177.531503,99.8549428 C177.014068,101.408021 177.738478,100.06202 178.255914,101.615098 L178.462888,103.789407 C176.600119,104.307099 178.048939,103.478791 177.117555,105.031869 C176.18617,105.031869 176.18617,103.996484 175.565247,106.170793 C176.082683,106.895563 175.875709,106.274331 176.289657,107.10264 C173.702478,106.792024 175.151298,107.516794 172.253657,103.064637 C171.839708,102.339867 171.42576,102.029252 171.011811,101.408021 C171.218785,100.890328 171.115298,101.408021 171.42576,100.993867 L171.839708,100.372635 C172.460632,100.683251 172.667606,101.718636 173.805965,100.476174 L174.323401,101.304482 C174.944324,100.476174 174.633862,101.200944 175.46176,100.579712 C176.393144,99.9584813 175.46176,100.165558 175.979196,99.7514042 L175.979196,99.6478657 Z M169.365015,97.1999002 C170.660854,96.8561707 169.688975,95.7104053 172.280654,95.3666758 L172.7126,95.3666758 C173.144547,95.3666758 173.144547,95.2520992 173.252533,95.2520992 C174.116426,95.1375227 175.088306,96.3978645 175.736226,97.1999002 C176.384146,98.1165125 176.060186,97.5436298 176.060186,98.4602421 C176.168172,99.3768543 176.168172,99.1477013 176.600119,99.8351605 C174.3324,101.668385 176.708105,100.751773 174.224413,101.668385 C173.900453,101.782961 174.116426,101.095502 173.792467,102.355844 C173.03656,101.897538 171.848707,102.355844 171.200788,102.699574 C170.768841,101.668385 171.416761,102.470421 170.444881,101.553808 C168.069175,99.2622778 169.904948,99.0331247 169.149042,97.1999002 L169.365015,97.1999002 Z M173.694199,75.4198502 C174.290285,75.5689457 173.694199,75.5689457 174.290285,75.7925889 L174.588328,75.8671366 C174.588328,76.910805 173.470666,76.6871618 174.290285,76.8362573 C175.035393,76.9853527 175.333436,75.4943979 176.376586,77.7308301 C176.972673,79.0726895 177.64327,79.8181669 178.462888,81.2345739 L183.008045,87.794775 C184.42375,89.6584685 186.510051,92.6403781 187.404181,94.6531671 L186.36103,93.6840465 C186.062987,93.3113078 186.510051,93.6094988 186.062987,93.2367601 C184.572771,93.3113078 184.796304,93.6840465 184.349239,94.8768103 C184.870814,95.3986445 185.39239,95.3986445 185.615922,96.1441219 C185.019836,95.845931 184.572771,95.3986445 184.051196,95.1750013 L183.827664,95.7713832 C183.827664,95.7713832 183.827664,95.845931 183.827664,95.9204787 C183.827664,95.9204787 183.827664,95.9950264 183.753153,96.0695742 C183.753153,96.0695742 183.753153,96.1441219 183.753153,96.2186697 C183.45511,95.845931 183.604131,95.845931 183.157067,95.7713832 C182.784513,96.1441219 182.710002,96.2932174 182.337448,96.5168606 C181.815873,96.8150516 181.890384,96.6659561 181.59234,97.1132425 L181.443319,97.3368858 C180.921744,96.5914084 180.6237,96.9641471 178.760931,96.7405038 L178.537399,97.1132425 C178.537399,97.1132425 178.462888,97.262338 178.462888,97.262338 C178.164845,96.4423129 178.462888,96.7405038 177.568759,96.5914084 C177.047183,96.5168606 176.67463,96.3677651 176.302076,95.9204787 C175.556968,96.0695742 176.004033,96.3677651 175.556968,96.2186697 C175.035393,95.9950264 176.078543,95.6968355 175.184414,94.9513581 C174.662839,94.5040716 175.184414,94.8768103 174.73735,94.2058807 C174.662839,94.3549762 174.662839,94.2058807 174.588328,94.5040716 C174.588328,94.5786194 174.513817,94.9513581 174.439306,95.0259058 C174.364796,95.4731923 174.439306,95.6222877 174.215774,95.9950264 L174.215774,94.2804284 C174.513817,93.534951 174.290285,94.5786194 174.513817,93.6840465 C173.470666,93.0131168 174.066753,93.2367601 174.141263,90.7766846 C173.545177,90.1803027 173.545177,90.4039459 173.396156,90.4784937 L173.098113,90.6275892 C173.172623,89.9566595 173.247134,90.3293982 172.800069,89.8821118 C171.90594,89.0620866 172.87458,89.6584685 171.235343,89.4348253 C171.682408,88.5402524 172.054962,89.8821118 171.607897,87.8693228 C171.607897,87.8693228 171.533386,87.4965841 171.533386,87.4965841 C171.533386,86.8256544 171.831429,87.2729409 171.309854,86.2292725 C170.490236,86.6765589 171.309854,86.7511067 169.819639,86.6020112 C169.96866,86.0056293 169.894149,86.2292725 170.862789,85.4092474 C170.713768,84.9619609 170.713768,84.2910313 170.564746,83.9928403 C170.490236,83.7691971 170.415725,83.7691971 170.192193,83.6201016 C169.96866,83.4710061 170.043171,83.5455539 169.894149,83.4710061 L169.670617,83.3219106 C169.670617,83.3219106 169.596106,83.2473629 169.596106,83.2473629 C170.192193,83.1728152 170.564746,83.1728152 171.011811,82.9491719 C171.086322,82.35279 170.862789,82.5764332 170.9373,81.7564081 C171.011811,80.7127397 171.011811,81.3836694 170.713768,80.5636443 C171.384365,80.340001 170.9373,81.0109307 171.607897,80.340001 C171.533386,79.4454282 171.235343,80.7127397 171.533386,79.5199759 C171.533386,79.4454282 171.607897,79.6690714 171.682408,79.0726895 L172.651048,79.0726895 C172.87458,77.6562824 173.023602,78.5508553 173.76871,77.5817347 C174.513817,76.612614 174.290285,76.6871618 173.992242,75.5689457 L173.694199,75.4198502 Z M139.94082,40.9787943 C140.834949,40.9042466 140.685927,41.5751762 141.803589,40.9787943 C143.219293,40.3078647 142.697718,40.3824124 143.144783,39.7114827 C143.219293,41.0533421 143.144783,40.8296988 144.411466,41.1278898 C144.709509,41.2024375 145.380106,41.351533 145.529127,41.4260808 C146.348746,41.7988195 145.603638,41.7242717 146.348746,42.0224627 C147.093854,41.7988195 146.274235,42.0224627 146.646789,41.7988195 C147.019343,41.5751762 146.497767,41.7988195 146.944832,41.8733672 C147.168364,41.9479149 146.944832,42.0970104 147.466407,41.7242717 L147.987983,41.2769853 C147.615429,42.2461059 147.242875,41.9479149 146.646789,42.5442969 C147.242875,43.9607039 147.987983,42.7679401 149.62722,43.066131 C150.223306,43.2152265 150.223306,43.1406788 150.074284,43.7370607 C148.882112,43.9607039 149.180155,43.066131 148.435047,43.662513 C147.76445,44.4079904 149.329177,45.7498497 149.552709,46.0480406 C149.999774,46.7189703 149.701731,46.5698748 149.999774,47.091709 C152.086075,46.9426135 151.340967,45.1534678 152.756672,45.377111 C152.607651,47.9117341 150.59586,46.1971361 151.5645,48.3590206 L150.893903,48.5826638 L152.235097,49.0299502 C151.340967,48.9554025 150.744881,48.7317593 149.850752,49.104498 C149.999774,49.5517844 149.850752,49.2535935 150.223306,49.4772367 C150.446838,49.6263322 150.446838,49.5517844 150.819392,49.7754276 C150.819392,50.3718096 150.893903,50.8936437 150.074284,50.7445483 C149.701731,50.6700005 149.478198,50.2972618 148.882112,50.1481663 C148.584069,50.5954528 148.807601,50.3718096 148.360537,50.5954528 L148.435047,51.4154779 C148.807601,51.7136689 149.031134,51.6391211 149.403687,51.9373121 C148.73309,52.0864076 148.435047,51.6391211 148.286026,51.9373121 C148.286026,51.9373121 148.211515,52.0864076 148.286026,52.3100508 C147.391897,52.0118598 147.913472,52.1609553 147.168364,53.1300759 C146.79581,53.5773624 146.7213,53.2791714 145.678149,53.5028146 C144.113423,53.8755533 146.423257,53.8755533 143.81538,53.7264579 C142.92125,53.6519101 143.740869,53.6519101 142.995761,53.8755533 C142.92125,53.1300759 142.92125,53.3537192 142.399675,53.0555282 C142.399675,53.0555282 142.325164,52.9809805 142.250653,52.9809805 C141.8781,52.7573372 142.176143,53.0555282 141.729078,52.3100508 L141.058481,50.7445483 C140.387884,50.1481663 141.132992,51.0427392 140.462395,50.6700005 C140.462395,50.6700005 140.238863,50.520905 140.164352,50.4463573 C139.791798,50.2227141 140.238863,50.520905 139.717287,50.2227141 C139.121201,49.9245231 139.344733,50.3718096 138.97218,49.104498 L138.823158,48.5826638 C138.152561,48.4335683 138.599626,48.5081161 138.07805,48.806307 C138.227072,47.8371864 138.07805,47.3153522 137.183921,47.0171613 C137.183921,47.0171613 137.258432,46.8680658 137.258432,46.9426135 L137.780007,46.3462316 L137.481964,44.5570858 C137.332943,43.8116084 137.556475,44.1097994 137.780007,43.8116084 L137.929029,43.662513 C137.929029,43.5879652 138.07805,43.4388697 138.07805,43.364322 C139.121201,41.351533 138.227072,42.3952014 138.450604,41.649724 C138.525115,41.649724 138.599626,41.7988195 138.599626,41.7988195 C139.121201,42.1715582 138.525115,42.1715582 139.419244,42.0970104 C139.94082,42.0224627 139.94082,41.7988195 140.387884,41.5751762 C140.313373,41.0533421 140.536906,41.4260808 140.164352,40.9787943 L139.94082,40.9787943 Z M123.026875,29.2002514 C122.952364,29.9457288 123.026875,29.9457288 123.324918,30.3930152 C123.697471,30.8403017 123.697471,30.9893972 123.995515,31.4366836 C124.219047,31.8094223 124.368068,31.9585178 124.591601,32.4058042 C124.815133,32.8530907 124.964155,33.0021861 125.262198,33.4494726 L135.17213,48.2844728 C135.395662,48.6572115 135.544684,48.9554025 135.842727,49.3281412 L147.093854,66.1013827 C147.391897,66.5486691 147.466407,66.7723124 147.76445,67.1450511 C147.987983,67.5177898 148.137004,67.741433 148.435047,68.0396239 L154.47042,77.0599005 C155.737103,78.9981417 158.046937,82.2036945 159.164598,83.9928403 L160.431282,86.0056293 C160.654814,86.378368 160.878346,86.6765589 161.101878,87.0492976 C161.548943,87.794775 161.996008,88.2420615 162.443072,88.9875389 L175.109903,107.848117 C177.047183,110.904574 179.207996,113.811936 181.145276,116.868394 C182.784513,119.62666 184.721793,122.161283 186.510051,124.845002 L191.800316,132.672515 C192.247381,133.343444 192.768956,133.865278 193.514064,134.238017 C194.259172,134.610756 195.004279,134.983494 195.674876,135.356233 C196.419984,135.728972 197.165092,136.101711 197.835689,136.474449 L213.631972,144.078319 C215.047677,144.749248 219.369301,147.209324 220.635984,146.985681 C221.530114,146.762037 222.1262,146.240203 221.977178,145.047439 L210.204476,127.006886 C209.012304,124.91955 204.914212,119.403017 203.423996,117.092037 C203.200464,116.719298 203.125953,116.495655 202.82791,116.122916 C201.114162,113.811936 199.474925,110.830027 197.835689,108.817238 L192.470913,100.915177 C192.396402,100.766082 192.247381,100.616986 192.17287,100.467891 L183.45511,87.5711318 C182.188427,85.8565338 176.525608,77.1344482 175.855011,76.612614 L155.364549,46.3462316 C153.650801,43.7370607 151.862543,40.9042466 149.999774,38.4441712 L144.634998,30.5421107 C143.964401,29.4984424 139.94082,23.3855277 139.195712,22.714598 L138.748647,22.3418593 C138.152561,22.7891458 138.07805,22.9382412 137.705496,23.6837186 C136.438813,22.714598 137.183921,23.6091709 136.438813,22.1182161 C136.14077,21.5218342 135.917238,21.4472864 135.619195,21.4472864 C134.650555,21.2236432 135.395662,21.4472864 134.874087,22.0436684 C133.532893,21.3727387 134.352512,23.3855277 134.352512,23.9073619 C134.278001,24.8764825 132.787786,25.3983167 132.489742,24.6528393 L132.340721,24.0564573 C132.26621,23.7582664 132.191699,23.7582664 132.042678,23.4600754 C131.595613,22.4909548 132.042678,22.7891458 131.968167,21.9691206 C131.670124,21.6709297 130.701484,21.3727387 130.32893,21.3727387 L128.987736,22.2673116 C129.062247,23.1618845 129.732844,23.6837186 129.36029,24.5037438 C128.764204,23.7582664 128.987736,22.9382412 128.466161,22.2673116 C127.646542,22.4164071 127.795564,22.5655025 127.497521,23.1618845 C127.273988,22.6400503 127.572032,23.3109799 127.42301,22.6400503 C127.273988,21.5218342 126.752413,22.714598 124.815133,22.1182161 C124.219047,22.4909548 124.740622,22.3418593 124.219047,22.5655025 C124.219047,22.4164071 124.51709,21.4472864 123.175896,21 L123.250407,29.4238946 L123.026875,29.2002514 Z" id="Shape" fill="#FCFDFD"></path>
                    <path d="M118.105125,123.061601 C119.374215,123.061601 118.627691,123.061601 119.822129,123.966835 C120.120738,124.225473 120.568652,124.484111 120.941914,124.74275 C121.315176,125.001388 121.613785,125.389345 121.987047,125.647984 C122.285656,125.906622 122.285656,125.777303 122.509613,126.035941 C122.73357,126.16526 122.882875,126.423898 123.106832,126.553217 C124.151965,127.458451 126.466187,128.751643 127.362016,129.786196 C127.660625,130.174153 127.51132,129.915515 127.660625,130.174153 L120.568652,130.174153 C119.747476,130.174153 119.374215,130.432791 118.403734,130.432791 C117.433254,130.432791 117.059992,130.174153 116.238816,130.174153 L109.146843,130.174153 L109.594757,129.656876 C110.490585,128.880962 113.775289,126.682537 115.193683,125.389345 L116.910687,124.096154 C117.283949,123.837516 117.95582,123.19092 118.105125,123.19092 L118.105125,123.061601 Z M95.4854637,119.376006 C95.4108113,119.449718 95.1122019,119.670854 95.0375496,119.744566 C94.6642879,120.334261 95.2615066,119.52343 94.8882449,120.334261 C93.6938074,120.113125 94.4403308,119.891989 93.3205456,120.407973 L94.1417214,120.923956 C94.3656785,121.145092 94.5149832,121.366227 94.5149832,121.587363 C94.8135925,124.314703 92.2007604,123.209025 92.0514557,123.209025 C91.8274987,123.209025 91.6035416,123.209025 91.454237,123.209025 C90.8570182,123.061601 90.8570182,122.693042 90.4837565,122.693042 C89.96119,122.693042 88.9160572,124.314703 88.8414048,124.314703 C88.8414048,124.314703 89.3639713,126.304925 89.3639713,126.304925 C89.96119,126.52606 90.2597994,126.378637 90.9316705,126.378637 C91.5288893,126.378637 91.8274987,126.378637 92.1261081,126.968332 C91.5288893,126.968332 90.9316705,127.042044 90.3344518,126.89462 C89.5879283,126.747196 89.5879283,126.599772 88.8414048,126.820908 C88.9160572,128.07401 89.3639713,126.673484 89.0653619,128.295146 C88.2441861,128.147722 88.5427954,127.852875 88.1695337,129.474536 C88.020229,130.285367 87.5723149,130.580215 87.2737055,131.16991 C87.4976626,131.612182 87.5723149,131.464758 87.6469673,131.907029 C86.5271821,131.907029 87.4230102,131.391046 86.4525297,131.759605 L83.0931741,133.454979 C83.6157406,134.118386 83.7650453,133.602403 83.4664359,134.413234 C83.0185218,134.192098 82.9438695,133.676115 82.0480413,134.118386 C82.0480413,134.118386 81.8240843,134.26581 81.7494319,134.339522 C81.7494319,134.339522 81.6747796,134.339522 81.6747796,134.413234 C81.3015178,134.560658 80.7789514,134.781793 80.1817326,134.781793 C78.0168146,134.63437 79.7338185,135.297777 78.539381,135.81376 C78.1661193,135.297777 78.3900763,135.224065 78.0914669,134.708081 C77.1209864,134.413234 77.8675099,135.002929 77.1209864,134.192098 C76.6730723,134.339522 77.1956388,134.044674 76.8970294,134.339522 C76.8970294,134.339522 76.822377,134.781793 76.7477247,134.486946 C76.7477247,134.486946 76.6730723,134.560658 76.6730723,134.560658 C76.2998106,133.89725 76.822377,134.339522 76.2998106,133.89725 C76.1505059,133.749827 75.9265489,133.749827 75.7025918,133.602403 C74.8067637,133.160131 75.4039824,133.233843 74.2095449,133.307555 C73.8362832,132.644148 74.3588496,132.71786 73.4630214,132.71786 C73.8362832,131.685893 73.6869785,132.275589 73.1644121,131.53847 C73.0151074,131.391046 72.940455,131.096198 72.8658027,130.948774 C72.6418456,130.506503 72.7911503,131.022486 72.5671933,130.359079 C74.2841973,130.064232 75.9265489,129.327113 77.3449435,128.589994 C78.1661193,128.147722 78.8379904,128.000298 79.5845139,127.558027 C81.3761702,126.673484 84.5115687,125.125534 86.0046157,124.16728 C86.6764868,123.725008 87.4976626,123.503872 88.2441861,123.061601 C88.9907095,122.61933 89.5879283,122.324482 90.1851471,121.808499 C89.737233,121.882211 81.6001272,125.788941 80.1070803,126.452348 L67.5654861,132.349301 C67.117572,132.570436 66.6696579,132.71786 66.2217438,132.938996 L63.683564,134.192098 C63.23565,134.413234 62.8623882,134.560658 62.3398218,134.781793 L39.7201608,145.543731 C39.1975944,145.838578 37.9285045,146.28085 38.0031568,147.312816 C38.1524615,148.565919 38.898985,148.934478 40.0934225,148.934478 C43.6767352,148.934478 56.2929817,149.081902 58.7565092,148.934478 C60.6974702,148.787055 63.683564,147.165393 65.5498727,146.354562 L72.0446269,143.479798 L71.6713651,142.226695 C71.4474081,141.710712 71.3727557,141.858136 71.1487987,141.784424 C71.1487987,141.784424 71.0741464,141.784424 71.0741464,141.784424 C71.0741464,141.784424 70.999494,141.784424 70.999494,141.784424 C71.6713651,139.794203 70.8501893,140.973593 71.3727557,139.573067 C71.7460175,138.5411 70.999494,139.573067 71.5967128,138.983372 L71.7460175,138.835948 C72.0446269,138.688524 71.7460175,138.688524 72.3432362,138.688524 L72.4178886,137.730269 C73.6123261,138.246253 72.716498,137.435422 74.2841973,136.919438 L74.7321113,137.36171 C75.0307207,137.140574 75.0307207,137.214286 75.2546778,136.845727 L75.4039824,137.435422 C76.2251583,137.287998 77.1956388,137.730269 77.4942482,138.098829 C77.7182052,138.467388 77.6435528,138.688524 78.0914669,139.057084 C78.6886857,139.425643 78.6140334,139.057084 78.9126427,139.130795 C79.5098615,140.08905 77.3449435,140.605033 76.8970294,141.268441 C78.2407716,140.973593 84.5115687,137.951405 86.3778774,137.140574 C87.7216196,136.550879 88.8414048,136.772015 90.5584088,136.772015 C93.619155,136.772015 96.6052489,136.772015 99.6659951,136.772015 C102.876046,136.772015 105.488878,136.624591 108.624277,136.624591 C120.941914,136.624591 132.811637,136.772015 144.979969,136.772015 C149.309806,136.772015 148.115368,136.477167 152.370552,138.393676 L171.4069,146.723121 C174.169037,147.902512 175.587432,148.860766 178.349568,148.860766 C182.082186,148.860766 194.026561,149.081902 196.564741,148.860766 C197.908483,148.787055 198.729659,146.723121 197.087307,145.838578 C187.30785,140.973593 176.557912,136.329743 166.927759,131.464758 C165.882626,130.948774 164.912146,130.580215 163.867013,129.99052 L159.31322,127.852875 C157.521564,126.89462 152.370552,124.756975 149.981677,123.577584 L129.825543,114.068749 C128.78041,113.552766 127.80993,113.184206 126.764797,112.594511 C124.674531,111.562544 122.658918,110.530578 120.494,109.646035 C118.627691,108.908916 117.657211,108.614068 115.268336,109.793459 L98.2476005,117.828056 C97.1278153,118.344039 96.0826824,118.712599 95.0375496,119.376006 L95.4854637,119.376006 Z" id="Shape" fill="#FEFEFE"></path>
                    <path d="M151.001233,104.549107 C149.595561,104.252304 147.450062,102.768287 145.970407,102.248881 C144.638718,101.729475 143.528977,100.987466 142.27127,100.542261 L137.314427,98.167834 C136.352651,97.7226289 131.691739,95.4224025 130.951911,95.1997999 L130.803946,88.0023172 C130.803946,87.9281163 130.803946,87.9281163 130.803946,87.8539155 C130.65598,87.1861078 130.286067,87.1119069 129.768187,86.7409027 L124.589396,83.1792617 C123.997534,82.7340566 123.109741,81.9178472 122.443896,81.7694455 C122.147965,82.2888515 122,82.8082574 122,83.6244668 L122,98.2420349 C122,100.245458 122.147965,101.803676 122.147965,103.732898 C122.147965,105.587919 123.405672,105.587919 125.107275,106.404129 L152.850801,118.276265 C154.256473,118.869872 155.440197,119.463479 156.845869,120.057086 C158.251541,120.650693 159.435265,121.170098 160.766954,121.763705 L164.836005,123.396124 C166.241677,123.91553 167.425401,124.434936 168.831073,125.028543 L172.900123,126.735162 C174.15783,127.254568 175.489519,127.848175 176.895191,128.367581 L180.002466,129.480594 C180.37238,129.628996 180.594328,130 181.038224,130 C181.926017,130 182,129.257991 182,128.590184 L180.37238,125.696351 C180.076449,125.176945 179.780518,124.880141 179.484587,124.360735 C179.336621,124.138133 179.262639,123.91553 179.040691,123.692927 C178.892725,123.470325 178.74476,123.247722 178.522811,122.950919 C178.374846,122.654116 178.22688,122.505714 178.152898,122.283111 C177.339088,120.724893 171.938348,113.230607 171.272503,112.043394 C170.754624,111.004582 170.088779,110.336774 169.422935,109.372163 L166.685573,105.291116 C166.31566,104.697509 166.093711,104.474907 165.723798,103.8813 L163.874229,101.210069 C163.35635,100.319659 162.690506,99.4292485 162.024661,98.5388383 C160.766954,96.683817 159.509248,94.9771974 158.325524,93.0479752 L149.151665,79.4692191 C147.006165,75.9075781 143.381011,71.0103218 140.939581,67.3002792 L124.071517,43.1108011 C123.553637,42.5171942 122.665845,41.2557797 122.073983,42.5913951 C121.926017,42.8881985 122.073983,43.0366002 122.073983,43.7044079 C122.295931,49.3436727 121.778052,55.2055401 122.221948,60.8448049 C122.295931,61.8836169 122.147965,61.2900101 122.591862,61.8836169 C125.551171,66.1872664 128.288533,70.7135184 131.247842,75.0171679 L149.225647,101.952078 C149.447596,102.323082 149.669544,102.471484 149.891492,102.842488 C150.335388,103.510295 150.631319,104.029701 151.075216,104.623308 L151.001233,104.549107 Z" id="Path" fill="#FEFEFE"></path>
                    <path d="M83.1481481,106.285046 L84.6296296,103.81891 C84.6296296,103.81891 84.7037037,103.744179 84.7037037,103.744179 L88.5555556,97.840399 C88.5555556,97.840399 88.6296296,97.7656676 88.6296296,97.7656676 L90.7777778,94.4774864 C91.0740741,94.029098 91.2222222,93.7301725 91.5185185,93.2817841 L105.666667,71.7591437 L105.666667,93.1323213 C105.666667,95.9721142 106.481481,95.0753375 101.222222,97.6162048 L83.2962963,106.359777 L83.1481481,106.285046 Z M71.3703704,103.893642 C71.0740741,104.566224 71.0740741,104.117836 71,104.86515 C71.8148148,105.089344 71.5185185,104.566224 72.7777778,104.790418 L76.6296296,104.640955 C77.6666667,104.491493 77.4444444,104.86515 77.8888889,105.612464 C81,105.911389 80.4074074,104.267299 81.8148148,103.29579 C82.1851852,104.566224 79.962963,105.761926 79.6666667,106.583972 C80.037037,107.107091 80.037037,106.808166 80.7037037,107.704943 L83.2222222,107.406017 C83.3703704,106.882897 83.2962963,106.957629 83.6666667,106.658703 C84.4074074,106.957629 83.8148148,106.658703 83.962963,107.181823 C83.962963,107.181823 84.037037,107.107091 84.037037,107.107091 C84.037037,107.107091 84.1111111,107.03236 84.1111111,107.03236 L84.5555556,106.359777 C84.8518519,106.060852 85,106.135583 85.5925926,105.986121 C87.2222222,105.612464 86.7777778,105.836658 87.8148148,105.911389 L88.037037,105.911389 C88.037037,105.911389 88.1111111,105.911389 88.1111111,105.911389 L87.962963,104.939881 C88.4074074,105.164075 88.4074074,105.238807 88.5555556,105.836658 C89.2962963,107.779674 86.7777778,107.480748 86.4074074,107.331286 C86.1851852,107.256554 85.962963,107.03236 85.6666667,107.107091 C85.2962963,107.107091 84.6296296,107.630211 84.5555556,108.078599 C84.4074074,108.676451 84.8518519,109.124839 85,109.573227 C85.6666667,110.993124 85.4444444,110.021616 86.3333333,110.918392 L89.0740741,113.085603 C90.1111111,113.683454 89.6666667,112.487751 90.1851852,114.58023 L90.2592593,114.953887 C90.9259259,115.10335 91.3703704,114.879156 91.962963,114.430768 L93.4444444,112.637214 C93.8148148,111.740438 93.6666667,110.918392 93.8888889,110.320541 C94.2592593,109.349033 96.037037,108.302794 96.037037,109.946884 C96.037037,110.320541 95.962963,110.470004 95.962963,110.918392 C95.962963,111.815169 95.7407407,113.085603 95,113.533991 C94.3333333,113.907648 94.1111111,113.533991 94.037037,114.430768 L94.7777778,114.206573 C95.4444444,114.131842 96.6296296,113.533991 97.3703704,113.235065 L113.740741,106.060852 C113.962963,105.911389 114.111111,105.836658 114.333333,105.761926 C114.62963,105.612464 114.62963,105.537732 114.851852,105.388269 C114.851852,102.623208 115,100.381266 115,97.5414734 L115,73.1790401 C115,71.9086064 114.851852,70.862367 114.851852,69.4424705 C114.851852,60.7736292 114.777778,51.6563996 114.925926,42.9875583 C114.925926,42.3897072 114.259259,41.2687363 113.222222,42.6886327 L111,45.5284256 C110.703704,45.9020825 110.62963,46.0515453 110.407407,46.4999336 L108.333333,49.4144579 C108.111111,49.7133834 107.888889,49.9375776 107.666667,50.3112346 L94.4074074,69.8908589 C94.1111111,70.2645158 93.962963,70.5634414 93.7407407,70.9370984 C93.2962963,71.6096809 92.8518519,72.1328006 92.4074074,72.8801145 C91.962963,73.6274284 91.5185185,74.2252795 91.0740741,74.8231307 L79.1481481,92.4597388 C77.7407407,94.3280236 75.2962963,98.4382501 73.8888889,100.306535 C73.3703704,100.979117 73.0740741,101.576968 72.5555556,102.249551 L72.1111111,102.922134 C72.1111111,102.922134 72.037037,102.996865 72.037037,102.996865 C71.5185185,103.594716 71.3703704,103.669447 71.2962963,104.267299 L71.3703704,103.893642 Z" id="Shape" fill="#FEFEFE"></path>
                    <path d="M71.2815884,103.815029 L71.133574,103.963216 C71.133574,103.963216 70.9855596,104.111403 70.9855596,104.111403 L70.2454874,105.222806 C69.8754513,105.815554 69.5794224,106.260116 69.2093863,106.852864 L65.9530686,111.594851 C65.7310469,111.891225 65.6570397,112.113505 65.5090253,112.409879 L55.5920578,127.524961 C55,128.636364 55,127.821336 55,129.525487 C56.4061372,130.488703 56.0361011,129.747768 57.2942238,129.3773 C59.6624549,128.636364 67.2851986,125.450342 69.801444,124.338939 L94.4458484,114.039937 C94.66787,113.89175 94.5198556,113.965844 94.7418773,113.817657 L94.0018051,114.039937 C94.0758123,113.150815 94.2978339,113.521283 94.9638989,113.150815 C95.7039711,112.706254 96,111.446663 95.9259928,110.557541 C95.9259928,110.11298 96,109.964793 96,109.594325 C96,107.964267 94.2238267,109.001577 93.8537906,109.964793 C93.631769,110.557541 93.7797834,111.446663 93.4097473,112.261692 L91.9296029,114.039937 C91.2635379,114.484499 90.8194946,114.706779 90.2274368,114.558592 L90.1534296,114.188124 C89.6353791,112.113505 90.0054152,113.299002 89.0433213,112.706254 L86.3050542,110.557541 C85.4169675,109.668419 85.6389892,110.705728 84.9729242,109.223857 C84.7509025,108.779296 84.3068592,108.334735 84.5288809,107.741986 C84.6028881,107.371519 85.3429603,106.852864 85.6389892,106.77877 C85.9350181,106.77877 86.1570397,106.926958 86.3790614,107.001051 C86.7490975,107.149238 89.265343,107.519706 88.5252708,105.51918 C88.3032491,105.000526 88.3772563,104.852338 87.933213,104.630058 L88.0812274,105.593274 C88.0812274,105.593274 88.0072202,105.593274 88.0072202,105.593274 L87.7851986,105.593274 C86.7490975,105.51918 87.1931408,105.2969 85.5649819,105.667367 C84.9729242,105.815554 84.898917,105.741461 84.5288809,106.037835 L84.0848375,106.704677 C84.0848375,106.704677 84.0108303,106.77877 84.0108303,106.77877 C84.0108303,106.77877 83.9368231,106.852864 83.9368231,106.852864 C83.7888087,106.334209 84.3808664,106.630583 83.6407942,106.334209 C83.1967509,106.630583 83.3447653,106.55649 83.1967509,107.075145 L80.6805054,107.371519 C80.0884477,106.482396 80.0884477,106.77877 79.6444043,106.260116 C79.866426,105.445087 82.1606498,104.25959 81.7906137,103 C80.3844765,103.963216 80.9765343,105.593274 77.868231,105.2969 C77.4241877,104.555964 77.6462094,104.185497 76.6101083,104.333684 L72.7617329,104.481871 C71.5036101,104.25959 71.799639,104.778245 70.9855596,104.555964 C71.0595668,103.815029 71.0595668,104.25959 71.3555957,103.592748 L71.2815884,103.815029 Z" id="Path" fill="#00B0FF"></path>
                    <path d="M85.6045695,74.2881844 C86.3747925,73.8213256 90.4569743,67.129683 91.3812419,65.7291066 L92.9216878,63.3948127 C93.229777,62.9279539 93.8459554,62.1498559 93.9229777,61.6829971 L93.3838216,61.7608069 L92.9216878,60.7492795 L93.4608439,60.1268012 C93.4608439,60.1268012 93.5378662,60.0489914 93.5378662,60.0489914 C93.5378662,60.0489914 93.6148885,59.9711816 93.6148885,59.9711816 C93.6148885,59.9711816 93.6919108,59.8933718 93.6919108,59.8933718 L94,59.2708934 C93.5378662,59.2708934 93.229777,59.1930836 92.9216878,59.426513 C92.6135986,59.5821326 92.8446655,59.5043228 92.6906209,59.6599424 C92.6906209,59.6599424 92.5365763,59.815562 92.5365763,59.8933718 C92.5365763,59.8933718 92.459554,59.9711816 92.459554,59.9711816 C92.459554,59.9711816 92.3825317,60.0489914 92.3825317,60.0489914 C91.5352865,59.6599424 92.2284871,59.8933718 91.6123088,59.3487032 C91.9974202,59.037464 91.689331,59.2708934 92.2284871,59.037464 C91.689331,58.7262248 91.6123088,58.4927954 91.3042196,57.7925072 C90.6880412,56.4697406 91.2271973,57.092219 91.5352865,56.5475504 C90.4569743,55.7694524 90.9191081,57.092219 89.6867513,56.314121 C89.6867513,56.314121 89.609729,56.2363112 89.609729,56.2363112 C88.6084391,55.6138329 89.2246175,56.0028818 88.839506,55.3804035 C88.1463053,55.8472622 88.9165283,55.6138329 88.2233276,55.8472622 C87.4531046,54.9135447 87.7611938,55.7694524 87.5301269,54.2132565 C87.4531046,53.5907781 87.1450154,52.9682997 87.29906,52.3458213 C86.759904,52.1123919 86.759904,52.1902017 86.3747925,51.9567723 C86.5288371,51.2564841 86.9139485,51.6455331 86.6828817,50.945245 C86.6058594,50.7896254 86.2207479,49.389049 86.2207479,49.389049 C86.0667033,49.778098 86.2207479,50.8674352 86.2977702,51.5677233 C85.7586141,51.2564841 85.8356364,51.3342939 85.7586141,50.6340058 C84.9113688,51.4121037 84.7573242,49.6224784 84.6032796,49.3112392 C84.0641235,49.6224784 84.449235,49.5446686 83.9871012,49.8559078 C83.2939005,49.7002882 83.2168782,49.389049 82.3696329,49.4668588 C82.138566,49.4668588 81.6764323,49.5446686 81.5223877,49.5446686 C80.9832316,49.4668588 81.5223877,49.6224784 81.2142985,49.389049 C80.5981201,48.9221902 81.6764323,49.8559078 81.0602539,49.2334294 L80.9062093,49 C80.6751424,49.3112392 80.829187,49.1556196 80.829187,49.8559078 C79.9819417,49.389049 79.0576741,51.5677233 78.2104288,52.7348703 C77.4402058,53.8242075 76.6699829,55.0691643 75.9767822,56.314121 C75.2835815,57.5590778 74.5903808,58.8040346 73.8971801,60.0489914 C73.2810017,61.2161383 71.9716227,62.5389049 71.5865112,63.6282421 C71.9716227,63.9394813 73.0499348,65.6512968 73.2810017,66.1181556 C73.8971801,67.3631124 73.8201578,68.5302594 72.2026896,68.4524496 C71.5094889,67.7521614 71.5094889,67.6743516 70.2001098,67.6743516 C69.9690429,68.29683 69.9690429,68.4524496 70.0460652,69.2305476 C70.3541544,68.4524496 69.8149983,68.9193084 70.4311767,68.6080692 C71.2013997,69.074928 72.5107788,69.6974063 73.5120686,68.8414986 L73.5890909,69.2305476 C74.89847,68.9193084 73.0499348,68.7636888 75.9767822,69.2305476 L76.5929606,70.3976945 C76.0538045,70.9423631 75.7457153,70.7867435 75.1295369,71.0979827 C74.5133585,71.4092219 74.2052693,71.9538905 74.0512247,72.2651297 C74.0512247,72.1873199 73.9742024,72.1095101 73.9742024,72.1095101 C73.9742024,72.1095101 73.8971801,72.0317003 73.8971801,71.9538905 L73.358024,71.1757925 C73.358024,72.1095101 73.5890909,71.7982709 73.9742024,72.5763689 C75.0525146,71.0201729 76.9010498,70.7867435 77.5942504,71.4870317 L78.0563842,72.9654179 C78.3644734,72.3429395 77.9023396,72.7319885 78.518518,72.4985591 C78.7495849,72.9654179 78.8266072,72.7319885 79.5198079,72.8876081 C79.7508748,72.9654179 79.9049194,73.0432277 79.9819417,73.0432277 L81.5223877,73.6657061 C82.138566,73.8213256 81.8304769,73.4322767 82.4466552,73.9769452 L82.5236775,76 C83.0628336,75.5331412 82.6777221,75.1440922 83.2939005,74.5216138 C83.8330566,73.9769452 84.6803019,74.2103746 85.3735026,73.8991354 C85.7586141,74.1325648 85.4505249,73.7435159 85.5275472,74.2103746 L85.6045695,74.2881844 Z" id="Path" fill="#00B0FF"></path>
                    <path d="M159.825939,156.653061 C160.453925,157.195918 160.296928,156.420408 160.375427,157.273469 C160.375427,157.971429 160.296928,157.506122 158.962457,158.591837 C158.412969,158.979592 158.805461,158.591837 158.412969,158.979592 C158.020478,159.444898 158.255973,159.444898 158.177474,160.142857 C157.392491,159.910204 157.392491,160.065306 157,160.763265 C157.627986,160.608163 157.392491,160.530612 158.020478,160.37551 C157.627986,161.461224 157.784983,160.37551 157.706485,161.383673 C157.627986,162.081633 157.156997,162.236735 157,162.314286 C157.156997,162.934694 156.843003,162.236735 157.235495,162.62449 L157.627986,162.857143 C157.627986,164.718367 158.569966,164.020408 158.177474,165.571429 C158.569966,165.416327 158.569966,165.493878 158.805461,165.183673 C159.040956,165.804082 159.354949,166.114286 159.74744,166.579592 C160.532423,167.510204 160.21843,167.044898 160.296928,168.130612 C160.846416,167.587755 160.532423,168.053061 162.730375,168.208163 L163.044369,168.828571 C163.122867,168.828571 163.358362,168.75102 163.43686,168.75102 L163.750853,168.828571 C163.750853,168.828571 163.829352,168.828571 163.829352,168.828571 C164.064846,169.604082 163.90785,169.759184 164.064846,170.22449 L164.143345,170.457143 C164.143345,170.457143 164.143345,170.534694 164.221843,170.534694 C164.457338,169.759184 164.300341,169.526531 164.143345,168.75102 C165.085324,167.97551 166.1843,168.053061 166.733788,168.906122 C166.812287,169.061224 166.341297,169.759184 166.576792,170.534694 C166.733788,171 166.498294,170.767347 166.812287,171 C169.559727,171 168.225256,171 168.539249,169.526531 C169.010239,169.44898 169.088737,169.604082 169.324232,169.914286 C169.716724,169.371429 169.010239,170.457143 169.481229,169.526531 C169.952218,168.595918 170.109215,169.293878 170.187713,169.371429 C170.423208,169.604082 170.34471,169.681633 170.501706,170.069388 L170.8157,170.767347 C172.228669,170.22449 174.897611,170.767347 176.389078,170.844898 C175.83959,169.604082 175.054608,170.457143 173.720137,169.914286 C172.856655,169.604082 172.228669,169.061224 172.071672,168.130612 L172.856655,167.742857 C173.484642,167.277551 172.935154,167.510204 174.112628,165.493878 C174.897611,164.097959 174.112628,164.95102 175.133106,164.17551 C175.83959,163.632653 175.761092,163.4 176.860068,163.632653 C177.174061,164.408163 176.860068,164.95102 177.25256,166.191837 C178.037543,166.191837 177.723549,166.269388 178.273038,165.959184 C178.351536,165.64898 178.194539,166.191837 178.037543,165.493878 C177.959044,165.261224 178.037543,164.873469 177.959044,164.563265 C177.645051,163.012245 177.25256,163.710204 177.017065,163.012245 L177.017065,162.857143 C176.703072,162.314286 177.095563,163.012245 176.938567,162.702041 C175.761092,161.15102 176.31058,161.228571 176.78157,160.142857 C177.959044,160.530612 177.566553,160.995918 179.136519,161.383673 C179.136519,161.306122 179.293515,161.306122 178.587031,160.840816 C177.645051,160.297959 177.566553,160.453061 177.409556,159.522449 C177.331058,158.82449 177.25256,158.979592 177.645051,158.591837 C178.194539,158.746939 178.037543,158.591837 178.273038,159.367347 C179.215017,158.591837 179.293515,159.6 180,158.979592 C179.372014,158.591837 178.587031,158.359184 177.880546,158.514286 L177.409556,155.102041 C177.331058,154.404082 177.174061,154.714286 177.174061,154.016327 C177.488055,153.783673 178.273038,153.473469 178.744027,153.318367 C178.430034,153.085714 178.901024,153.240816 178.351536,153.163265 C178.194539,153.163265 178.116041,153.163265 177.959044,153.163265 C176.232082,153.240816 176.703072,152.077551 175.918089,152 C173.484642,152 171.286689,152.077551 169.010239,152.155102 C166.65529,152.232653 164.692833,152.155102 162.416382,152 C162.102389,152.465306 162.337884,152.697959 161.788396,152.853061 C161.238908,153.008163 162.023891,152.77551 161.631399,152.853061 C161.003413,152.930612 161.081911,154.171429 160.21843,154.171429 C159.904437,154.171429 159.668942,153.706122 159.825939,154.404082 C159.904437,155.179592 160.68942,154.791837 160.453925,156.110204 C160.375427,156.497959 160.453925,156.265306 160.061433,156.57551 L159.825939,156.653061 Z" id="Path" fill="#00B0FF"></path>
                    <path d="M122.365297,29 L122.292237,20.7037975 C123.607306,21.1443038 123.315068,22.0987342 123.315068,22.2455696 C123.826484,22.0253165 123.315068,22.0987342 123.899543,21.8050633 C125.799087,22.3924051 126.310502,21.2911392 126.456621,22.3189873 C126.52968,22.9797468 126.310502,22.3924051 126.52968,22.8329114 C126.821918,22.2455696 126.675799,22.1721519 127.479452,21.9518987 C127.990868,22.6126582 127.771689,23.4202532 128.356164,24.1544304 C128.721461,23.2734177 128.063927,22.7594937 127.990868,21.9518987 L129.305936,21.0708861 C129.671233,21.1443038 130.621005,21.4379747 130.913242,21.6582278 C131.059361,22.4658228 130.547945,22.1721519 130.986301,23.1265823 C131.13242,23.4202532 131.205479,23.4936709 131.278539,23.7139241 L131.424658,24.3012658 C131.716895,25.035443 133.178082,24.521519 133.251142,23.5670886 C133.251142,23.0531646 132.520548,21.0708861 133.762557,21.7316456 C134.273973,21.1443038 133.543379,20.9240506 134.493151,21.1443038 C134.712329,21.2177215 135.004566,21.2177215 135.296804,21.8050633 C136.027397,23.2734177 135.296804,22.3924051 136.538813,23.3468354 C136.90411,22.6126582 136.977169,22.4658228 137.561644,22.0253165 L138,22.3924051 C137.707763,21.7316456 137.415525,21.5113924 137.050228,20.9974684 L135.223744,18.2075949 C133.543379,15.4177215 130.328767,11.2329114 128.502283,8.29620253 L124.557078,2.64303797 C124.26484,2.20253165 123.899543,1.76202532 123.607306,1.24810127 C123.242009,0.660759494 123.09589,0.146835443 122.438356,0 C121.926941,0.807594937 122.146119,1.83544304 122.146119,3.37721519 L122,6.90126582 C122,9.32405063 122.438356,11.7468354 122.146119,14.3164557 L122.146119,28.0455696 C122.146119,28.1189873 122.146119,28.4126582 122.146119,28.4860759 L122.292237,28.9265823 L122.365297,29 Z" id="Path" fill="#00B0FF"></path>
                    <path d="M173.443515,75.1564626 C173.74477,76.329932 174.046025,76.2517007 173.217573,77.2687075 C172.464435,78.207483 172.313808,77.3469388 172.087866,78.8333333 L171.108787,78.8333333 C171.108787,79.4591837 170.958159,79.3027211 170.958159,79.3027211 C170.656904,80.6326531 171.033473,79.2244898 171.033473,80.1632653 C170.355649,80.7891156 170.807531,80.1632653 170.129707,80.3979592 C170.430962,81.2585034 170.430962,80.5544218 170.355649,81.6496599 C170.280335,82.5102041 170.506276,82.2755102 170.430962,82.9013605 C169.979079,83.1360544 169.527197,83.1360544 169,83.2142857 C169,83.2142857 169.075314,83.292517 169.075314,83.292517 L169.301255,83.4489796 C169.451883,83.5272109 169.376569,83.4489796 169.60251,83.6054422 C169.828452,83.7619048 169.903766,83.7619048 169.979079,83.9965986 C170.129707,84.3095238 170.129707,85.0136054 170.280335,85.4829932 C169.301255,86.2653061 169.376569,86.1088435 169.225941,86.7346939 C170.732218,86.8911565 169.903766,86.7346939 170.732218,86.3435374 C171.334728,87.4387755 170.958159,86.9693878 170.958159,87.6734694 C170.958159,87.6734694 171.033473,88.0646259 171.033473,88.0646259 C171.485356,90.1768707 171.108787,88.7687075 170.656904,89.707483 C172.313808,89.9421769 171.410042,89.3163265 172.238494,90.1768707 C172.76569,90.6462585 172.615063,90.255102 172.539749,90.9591837 L172.841004,90.8027211 C172.991632,90.8027211 172.991632,90.4897959 173.594142,91.1156463 C173.443515,93.6972789 172.841004,93.462585 173.970711,94.1666667 C173.74477,95.1054422 173.895397,94.0102041 173.669456,94.792517 L173.669456,96.5918367 C173.820084,96.2006803 173.820084,96.0442177 173.895397,95.5748299 C173.895397,95.4965986 173.970711,95.1054422 174.046025,95.0272109 C174.196653,94.6360544 174.121339,94.792517 174.196653,94.7142857 C174.648536,95.4183673 174.121339,95.0272109 174.648536,95.4965986 C175.552301,96.3571429 174.497908,96.670068 175.025105,96.8265306 C175.476987,96.9829932 175.025105,96.670068 175.778243,96.5136054 C176.230126,96.9829932 176.531381,97.1394558 177.058577,97.2176871 C177.962343,97.3741497 177.585774,97.0612245 177.962343,97.9217687 C177.962343,97.8435374 178.037657,97.7653061 178.037657,97.7653061 L178.263598,97.3741497 C180.146444,97.6088435 180.447699,97.2176871 180.974895,98 L181.125523,97.7653061 C181.502092,97.2959184 181.351464,97.452381 181.878661,97.1394558 C182.25523,96.9047619 182.330544,96.8265306 182.707113,96.3571429 C183.158996,96.5136054 183.083682,96.4353741 183.309623,96.8265306 C183.309623,96.8265306 183.309623,96.7482993 183.309623,96.670068 C183.309623,96.670068 183.309623,96.5918367 183.384937,96.5136054 C183.384937,96.5136054 183.384937,96.4353741 183.384937,96.3571429 L183.610879,95.7312925 C184.138075,95.9659864 184.589958,96.4353741 185.192469,96.7482993 C184.966527,95.9659864 184.439331,95.9659864 183.912134,95.4183673 C184.364017,94.244898 184.138075,93.8537415 185.644351,93.6972789 C186.096234,94.1666667 185.644351,93.7755102 185.945607,94.1666667 L187,95.1836735 C186.096234,93.0714286 184.062762,89.9421769 182.556485,87.9863946 L177.962343,81.1020408 C177.058577,79.537415 176.456067,78.8333333 175.853556,77.4251701 C174.799163,75.0782313 174.573222,76.7210884 173.74477,76.4863946 C172.916318,76.2517007 174.046025,76.4863946 174.046025,75.4693878 L173.74477,75.3911565 C173.142259,75.0782313 173.74477,75.1564626 173.142259,75 L173.443515,75.1564626 Z" id="Path" fill="#00B0FF"></path>
                    <path d="M150.014354,43.3157895 C148.330144,42.9473684 147.564593,44.2 146.952153,42.8 C147.564593,42.2105263 147.947368,42.5052632 148.330144,41.5473684 L147.794258,41.9894737 C147.334928,42.3578947 147.488038,42.2105263 147.258373,42.1368421 C146.875598,42.0631579 147.334928,41.8421053 146.952153,42.0631579 C146.569378,42.2842105 147.411483,42.0631579 146.645933,42.2842105 C145.880383,41.9894737 146.645933,42.0631579 145.803828,41.6947368 C145.574163,41.6210526 144.961722,41.4736842 144.655502,41.4 C143.354067,41.1052632 143.430622,41.3263158 143.354067,40 C142.894737,40.6631579 143.430622,40.5157895 141.976077,41.2526316 C140.827751,41.8421053 140.980861,41.1789474 140.062201,41.2526316 C140.444976,41.6947368 140.215311,41.2526316 140.291866,41.8421053 C139.909091,42.0631579 139.832536,42.3578947 139.296651,42.3578947 C138.454545,42.4315789 139.066986,42.4315789 138.454545,42.0631579 C138.454545,42.0631579 138.301435,41.9157895 138.301435,41.9157895 C138.07177,42.7263158 138.990431,41.6210526 137.91866,43.6105263 C137.842105,43.6842105 137.76555,43.9052632 137.76555,43.9052632 L137.61244,44.0526316 C137.30622,44.3473684 137.15311,44.0526316 137.30622,44.7894737 L137.61244,46.5578947 L137.076555,47.1473684 C137.076555,47.1473684 137,47.2210526 137,47.2210526 C137.91866,47.5157895 138.07177,48.0315789 137.91866,48.9894737 C138.5311,48.6947368 138.07177,48.6210526 138.684211,48.7684211 L138.837321,49.2842105 C139.220096,50.5368421 139.066986,50.0947368 139.602871,50.3894737 C140.138756,50.6105263 139.679426,50.3894737 140.062201,50.6105263 C140.138756,50.6842105 140.368421,50.8315789 140.368421,50.8315789 C141.057416,51.2 140.368421,50.3157895 140.980861,50.9052632 L141.669856,52.4526316 C142.052632,53.1894737 141.746411,52.8210526 142.205742,53.1157895 C142.205742,53.1157895 142.282297,53.1894737 142.358852,53.1894737 C142.818182,53.4842105 142.894737,53.2631579 142.971292,54 C143.736842,53.7052632 142.894737,53.7789474 143.813397,53.8526316 C146.492823,54 144.119617,54 145.727273,53.6315789 C146.799043,53.3368421 146.799043,53.7052632 147.258373,53.2631579 C148.023923,52.3789474 147.488038,52.2315789 148.406699,52.4526316 C148.330144,52.2315789 148.406699,52.0842105 148.406699,52.0842105 C148.559809,51.7894737 148.866029,52.2315789 149.555024,52.0842105 C149.172249,51.7894737 148.942584,51.8631579 148.559809,51.5684211 L148.483254,50.7578947 C148.942584,50.5368421 148.712919,50.8315789 149.019139,50.3157895 C149.708134,50.5368421 149.861244,50.8315789 150.244019,50.9052632 C151.086124,51.0526316 151.009569,50.5368421 151.009569,49.9473684 C150.703349,49.7263158 150.626794,49.8 150.397129,49.6526316 C150.014354,49.4315789 150.167464,49.6526316 150.014354,49.2842105 C150.856459,48.9157895 151.4689,49.1368421 152.464115,49.2105263 L151.086124,48.7684211 L151.77512,48.5473684 C150.779904,46.4105263 152.84689,48.1789474 153,45.6 C151.4689,45.3052632 152.311005,47.1473684 150.167464,47.2947368 C149.861244,46.7789474 150.167464,46.9263158 149.708134,46.2631579 C149.478469,45.8947368 147.870813,44.5684211 148.559809,43.9052632 C149.248804,43.3157895 148.942584,44.1263158 150.244019,43.9789474 C150.320574,43.4631579 150.397129,43.4631579 149.784689,43.3157895 L150.014354,43.3157895 Z" id="Path" fill="#00B0FF"></path>
                    <path d="M90.6807818,121.515695 C90.0814332,121.973094 89.4820847,122.35426 88.732899,122.811659 C87.9837134,123.269058 87.1596091,123.497758 86.485342,123.955157 C84.9120521,124.946188 81.7654723,126.547085 80.0423453,127.461883 C79.218241,127.843049 78.5439739,128.071749 77.7947883,128.529148 C76.3713355,129.367713 74.723127,130.130045 73,130.358744 C73.2247557,131.044843 73.0749186,130.511211 73.2996743,130.96861 C73.3745928,131.197309 73.4495114,131.426009 73.5993485,131.578475 C74.0488599,132.264574 74.2736156,131.654709 73.8990228,132.798206 C74.7980456,132.798206 74.3485342,132.721973 74.6482085,133.408072 C75.8469055,133.331839 75.247557,133.255605 76.1465798,133.713004 C76.3713355,133.865471 76.5960912,133.941704 76.7459283,134.017937 C77.2703583,134.475336 76.8208469,134.017937 77.1205212,134.704036 C77.1205212,134.704036 77.1954397,134.55157 77.1954397,134.627803 C77.2703583,134.856502 77.3452769,134.475336 77.3452769,134.475336 C77.6449511,134.170404 77.1205212,134.475336 77.5700326,134.32287 C78.3192182,135.161435 77.5700326,134.55157 78.5439739,134.856502 C78.7687296,135.390135 78.5439739,135.466368 78.9934853,136 C80.1921824,135.542601 78.4690554,134.856502 80.6416938,134.932735 C81.1661238,134.932735 81.6905537,134.780269 82.1400651,134.55157 C82.1400651,134.55157 82.2149837,134.55157 82.2149837,134.475336 C82.2899023,134.475336 82.514658,134.32287 82.514658,134.246637 C83.4136808,133.789238 83.4885993,134.32287 83.9381107,134.55157 C84.237785,133.789238 84.0130293,134.246637 83.5635179,133.560538 L86.9348534,131.807175 C87.9087948,131.426009 87.0846906,131.883408 88.1335505,131.959641 C87.9837134,131.502242 87.9837134,131.730942 87.7589577,131.197309 C88.0586319,130.587444 88.5081433,130.282511 88.6579805,129.443946 C89.0325733,127.766816 88.732899,128.071749 89.5570033,128.224215 C89.781759,126.547085 89.4071661,127.995516 89.3322476,126.699552 C90.0814332,126.470852 90.0814332,126.699552 90.8306189,126.775785 C91.4299674,126.852018 92.029316,126.775785 92.6286645,126.852018 C92.2540717,126.242152 92.029316,126.242152 91.4299674,126.242152 C90.7557003,126.242152 90.4560261,126.394619 89.8566775,126.165919 C89.8566775,126.165919 89.3322476,124.107623 89.3322476,124.107623 C89.3322476,124.107623 90.3811075,122.430493 90.980456,122.430493 C91.3550489,122.430493 91.3550489,122.811659 91.9543974,122.964126 C92.1042345,122.964126 92.3289902,122.964126 92.5537459,122.964126 C92.7035831,122.964126 95.2508143,124.107623 95.0260586,121.286996 C95.0260586,121.058296 94.8762215,120.829596 94.6514658,120.600897 L93.8273616,120.067265 C94.9511401,119.533632 94.276873,119.762332 95.4006515,119.991031 C95.7003257,119.152466 95.1758958,119.991031 95.5504886,119.381166 C95.6254072,119.2287 95.9250814,119.076233 96,119 C95.47557,119.152466 95.2508143,119.304933 94.8013029,119.457399 L93.5276873,120.143498 C92.6286645,120.600897 91.8045603,120.829596 90.9055375,121.439462 L90.6807818,121.515695 Z" id="Path" fill="#00B0FF"></path>
                    <path d="M40.3064516,115.545064 C39.6612903,115.699571 39.2580645,116.008584 38.4516129,115.390558 L37.6451613,114.772532 C37.6451613,114.772532 37.6451613,114.695279 37.6451613,114.695279 C37.3225806,113.76824 38.0483871,114.849785 37.5645161,114 C37.1612903,114.154506 37.483871,113.845494 37,114.386266 L34.7419355,117.708155 C34.2580645,118.32618 33.9354839,118.944206 33.4516129,119.562232 L27,128.909871 C27.6451613,128.755365 28.0483871,129.064378 28.4516129,129.450644 C28.2903226,130.145923 27.9677419,130.06867 27.6451613,130.609442 C26.8387097,131.76824 27.4032258,131.922747 27.4032258,132 C28.0483871,130.223176 28.1290323,130.454936 29.9032258,129.83691 C30.3870968,130.223176 30.0645161,129.991416 30.3870968,130.454936 C31.1935484,130.454936 31.6774194,130.223176 32.7258065,130.06867 C34.4193548,129.759657 34.5,129.60515 34.983871,129.83691 C35.4677419,130.06867 35.6290323,130.686695 35.8709677,131.304721 L35.9516129,130.763948 C36.0322581,128.755365 35.7096774,129.759657 37.2419355,128.523605 C37.5645161,128.291845 37.8870968,127.67382 38.3709677,127.44206 C39.2580645,127.055794 39.0967742,127.67382 39.983871,127.133047 C39.7419355,126.592275 39.5806452,127.133047 39.2580645,126.515021 C39.5,126.206009 39.5806452,125.974249 39.7419355,125.665236 C40.2258065,124.969957 39.9032258,125.433476 40.3870968,125.124464 C40.9516129,124.660944 40.5483871,124.969957 40.8709677,124.429185 C41.3548387,123.502146 41.1129032,124.660944 41.3548387,123.965665 C41.3548387,123.888412 41.4354839,123.965665 41.4354839,123.888412 L41.3548387,122.729614 C41.3548387,122.266094 41.2741935,122.497854 41.7580645,122.034335 C41.4354839,121.570815 41.3548387,121.416309 41.2741935,120.875536 C41.8387097,120.72103 41.7580645,120.72103 42,120.257511 C41.2741935,119.793991 41.9193548,120.180258 41.6774194,119.871245 L41.516129,119.716738 C41.516129,119.716738 41.4354839,119.639485 41.4354839,119.639485 C40.4677419,118.712446 41.1129032,119.098712 41.516129,118.55794 C41.516129,118.55794 41.4354839,118.480687 41.3548387,118.480687 L40.9516129,118.32618 C40.4677419,118.094421 40.7096774,118.248927 40.4677419,117.862661 C40.0645161,117.244635 40.6290323,117.630901 39.5,117.167382 C39.5806452,116.240343 39.983871,116.16309 40.3064516,115.467811 L40.3064516,115.545064 Z" id="Path" fill="#00B0FF"></path>
                    <path d="M213.098689,156.070064 C212.564379,156.070064 211.724749,155.840764 211.419429,155.535032 C211.114109,156.22293 210.5798,156.528662 210.19815,156.757962 C208.06091,155.917197 209.43485,156.834395 208.2899,156.299363 C208.13724,156.834395 208.51889,156.070064 208.2899,156.605096 C207.22128,156.987261 207.60293,156.528662 206.68697,157.904459 C206.53431,158.133758 206.53431,158.057325 206.53431,158.133758 C206.53431,158.133758 206.53431,158.515924 206.38165,158.821656 C205.61835,161.038217 206.83963,159.050955 206.30532,161.11465 L206,161.878981 C206.45798,161.649682 206.22899,161.649682 206.7633,161.420382 C207.83192,162.33758 207.37394,162.184713 206.53431,162.796178 C205.92367,163.254777 206.15266,163.866242 206.99229,163.636943 C207.37394,163.56051 207.06862,163.56051 207.60293,163.33121 C207.5266,164.095541 207.29761,164.401274 206.91596,164.859873 L207.60293,164.707006 C208.13724,165.318471 208.21357,164.859873 208.2899,165.624204 C208.36623,166.388535 208.36623,166.770701 209.20586,167 C209.43485,165.624204 208.36623,166.694268 208.90054,164.477707 C209.43485,164.401274 209.12953,164.55414 210.42714,164.401274 C211.266769,164.324841 211.572089,164.324841 212.106399,164.707006 C211.953739,165.853503 211.343099,164.936306 211.495759,165.929936 C211.495759,165.929936 211.495759,166.006369 211.495759,166.082803 C212.564379,165.929936 212.182729,164.095541 213.404009,163.942675 C213.632999,164.171975 213.556669,164.783439 213.632999,165.089172 C213.632999,165.012739 213.785659,164.783439 213.785659,164.783439 C213.785659,164.783439 213.785659,164.707006 213.861989,164.707006 L213.938319,164.55414 C214.472629,163.636943 213.632999,164.55414 214.777949,163.713376 C215.083269,163.484076 215.083269,163.407643 215.388589,163.178344 C216.380879,162.184713 216.228219,162.796178 216.762529,162.490446 C216.457209,161.649682 216.915189,161.496815 216.838859,160.426752 L216.991519,159.968153 C216.991519,158.974522 217.067849,159.050955 216.762529,158.286624 C216.304549,157.063694 216.533539,156.987261 215.922899,156.528662 L215.770239,156.452229 C214.930609,155.687898 214.930609,156.528662 214.396299,155.687898 L214.319969,155.458599 C213.404009,155.993631 213.251349,155.458599 212.869699,155 C212.488049,155.535032 212.717039,155.229299 212.869699,155.917197 L213.098689,156.070064 Z" id="Path" fill="#00B0FF"></path>
                    <path d="M114.597096,28.8475336 L114.819104,28.0852018 C114.96711,25.264574 114.671098,22.5964126 114.96711,18.632287 C115.041113,17.9461883 114.96711,17.1076233 114.96711,16.4215247 L114.96711,12.6098655 C114.893107,12.1524664 114.96711,12.3811659 114.745101,12.1524664 C114.079076,12.9910314 113.93107,12.0762332 113.191042,12 C112.821027,12 111.488976,12.0762332 111.340971,12.4573991 C111.192965,12.838565 111.414974,12.3811659 111.266968,12.6860987 C111.044959,13.2197309 109.860914,13.9058296 110.00892,14.6681614 C110.00892,14.6681614 110.230928,15.2780269 110.230928,15.3542601 C110.378934,15.8878924 110.452937,16.573991 110.378934,16.8789238 L112.229005,18.0224215 L112.599019,17.4887892 C113.043036,18.4035874 113.783064,17.8699552 114.745101,17.793722 L114.745101,20.0807175 C114.671098,20.0807175 114.671098,19.9282511 114.671098,19.9282511 L114.375087,19.3183857 C114.375087,19.3183857 114.375087,19.2421525 114.301084,19.2421525 C113.635059,20.309417 113.783064,19.3946188 112.37701,19.5470852 C112.451013,18.9372197 112.451013,19.0134529 112.303008,18.7085202 C111.266968,18.7847534 110.822951,18.5560538 111.340971,17.5650224 C110.378934,17.6412556 110.822951,18.0224215 110.082922,17.5650224 L109.194888,17.1838565 C108.158849,16.8789238 109.120886,15.735426 107.492823,15.735426 C107.196812,16.8026906 107.492823,16.8026906 107.714832,17.0313901 C107.714832,17.0313901 107.788834,17.1076233 107.788834,17.1076233 C107.788834,17.1076233 107.862837,17.1076233 107.862837,17.1838565 C108.158849,17.3363229 107.714832,17.1838565 108.158849,17.2600897 C108.45486,17.3363229 108.158849,17.1076233 108.676868,17.4125561 C108.528863,18.2511211 108.750871,17.7174888 107.714832,18.3273543 C105.642752,19.5470852 107.122809,19.3946188 106.234775,19.7757848 C105.420744,20.1569507 102.534633,17.9461883 102.090616,17.9461883 C101.646599,18.7085202 102.97865,18.8609865 102.97865,18.8609865 C104.088692,19.1659193 104.384704,19.6233184 104.976726,20.0044843 C105.716755,20.4618834 106.234775,21.0717489 106.38278,21.9103139 C106.456783,22.2152466 106.38278,22.0627803 106.604789,22.2914798 C107.270815,23.1300448 106.826797,22.9775785 107.270815,23.3587444 C108.306854,24.1210762 107.492823,23.4349776 108.158849,24.1973094 C108.45486,24.5784753 108.306854,24.2735426 108.750871,24.5784753 C108.380857,25.1883408 108.232851,24.8834081 108.158849,25.8744395 C108.306854,25.9506726 108.676868,26.0269058 108.676868,26.0269058 L108.97288,26.3318386 C109.638905,26.941704 108.676868,26.4080717 109.120886,26.4843049 C109.194888,26.2556054 109.416897,25.7982063 109.4909,25.6457399 C109.638905,25.0358744 109.4909,24.9596413 109.342894,24.7309417 C109.194888,25.0358744 109.120886,25.4170404 108.898877,25.7219731 C108.602866,25.264574 108.97288,24.7309417 109.194888,24.1210762 C109.638905,24.2735426 109.860914,24.5022422 110.156925,24.8071749 L110.526939,25.1121076 C110.526939,24.426009 110.378934,24.5784753 110.378934,24.044843 C110.600942,23.8923767 111.266968,23.3587444 111.562979,23.2825112 L111.932993,23.8923767 C111.932993,23.8923767 112.006996,23.9686099 112.006996,24.044843 L112.747025,23.8923767 C112.821027,23.4349776 112.673022,23.8161435 112.89503,23.4349776 C113.339047,23.7399103 113.117039,23.7399103 113.635059,23.8161435 C114.079076,23.1300448 113.635059,23.206278 114.44909,22.9013453 L114.375087,29 L114.597096,28.8475336 Z" id="Path" fill="#00B0FF"></path>
                    <path d="M72.0429734,144 C72.489962,143.922222 72.8624525,143.688889 73.2349431,143.455556 L76.2893652,142.055556 C76.5128595,141.977778 76.4383614,141.977778 76.5873576,141.9 C76.88535,141.666667 76.6618557,141.822222 76.88535,141.666667 C77.3323387,140.888889 79.4927836,140.422222 78.8967988,139.411111 C78.5988064,139.255556 78.7478026,139.722222 78.0773197,139.333333 C77.555833,139.022222 77.7048292,138.711111 77.4813349,138.322222 C77.1833424,137.933333 76.2893652,137.466667 75.395388,137.622222 L75.2463918,137 C75.0228975,137.388889 75.0228975,137.311111 74.7249051,137.544444 L74.2779165,137.077778 C72.7879544,137.622222 73.6074336,138.477778 72.4154639,137.933333 L72.3409658,138.944444 C71.6704829,138.944444 72.0429734,138.944444 71.744981,139.1 L71.5959848,139.255556 C71,139.877778 71.744981,138.788889 71.3724905,139.877778 C70.8510038,141.355556 71.5959848,140.111111 71,142.211111 C71,142.211111 71.0744981,142.211111 71.0744981,142.211111 C71.0744981,142.211111 71.1489962,142.211111 71.1489962,142.211111 C71.3724905,142.288889 71.5214867,142.133333 71.6704829,142.677778 L72.0429734,144 Z" id="Path" fill="#00B0FF"></path>
                    <path d="M149.015624,161.086207 C150.181411,161.784483 149.870535,161.396552 150.025973,162.017241 C148.316151,162.405172 148.316151,162.327586 147.849836,163.103448 C146.450891,163.181034 146.52861,162.017241 146.450891,162.405172 C145.518261,162.172414 146.373172,162.327586 146.062295,162.482759 C146.761768,163.646552 147.150363,163.336207 147.383521,164.965517 C147.46124,165.663793 148.005274,166.206897 148.238432,166.517241 C148.782466,167.37069 148.005274,166.982759 148.937904,167.293103 L148.627028,167.758621 C148.549309,167.836207 148.316151,168.068966 148.238432,168.146552 L148.782466,168.844828 C149.093343,169.077586 148.39387,168.844828 149.015624,169 C149.248781,168.534483 149.481939,168.456897 149.40422,167.991379 C149.40422,167.991379 149.40422,167.913793 149.40422,167.913793 L149.248781,167.525862 C149.248781,167.137931 149.171062,167.37069 149.481939,167.137931 C149.792815,167.525862 149.870535,167.681034 150.103692,168.068966 C150.103692,167.991379 150.181411,167.913793 150.181411,167.913793 L150.25913,167.681034 C150.414569,167.293103 150.181411,167.137931 151.424918,166.827586 L151.658076,167.293103 C151.658076,167.293103 151.735795,167.37069 151.735795,167.37069 C151.735795,167.37069 151.813514,167.448276 151.813514,167.448276 L152.668425,167.215517 C152.979301,167.215517 152.823863,167.37069 153.290178,167.525862 C153.290178,167.525862 153.367897,167.37069 153.367897,167.448276 L154.300527,166.439655 C154.611404,165.896552 154.455966,165.818966 154.766842,165.275862 C155.077719,164.810345 154.689123,165.586207 155,164.965517 C154.06737,164.655172 154.611404,164.577586 153.834212,164.344828 C152.823863,164.034483 152.512986,164.189655 152.979301,163.336207 L152.046671,163.103448 C151.891233,162.637931 151.968952,162.482759 152.124391,162.172414 C150.570007,162.25 150.958603,161.474138 150.492288,161.396552 L150.181411,161.474138 C150.103692,160.543103 150.025973,160.310345 149.3265,160 L149.093343,160.775862 C149.093343,160.775862 149.093343,160.853448 149.015624,160.931034 L149.015624,161.086207 Z" id="Path" fill="#00B0FF"></path>
                    <path d="M84,47.7607299 C85.0714286,48.5320628 84.7142857,47.6505395 85.1904762,48.8626341 C85.547619,49.9645382 84.8333333,49.5237766 86.0238095,50.4052999 L86.2619048,50.6256807 C87.0952381,51.2868232 87.9285714,51.8377752 88.7619048,51.9479656 C90.1904762,52.1683465 88.8809524,51.6173944 90.3095238,51.6173944 C91.2619048,51.6173944 90.1904762,52.0581561 91.0238095,51.3970136 C91.3809524,51.1766327 91.1428571,51.2868232 91.5,51.0664423 C94.4761905,49.5237766 92.3333333,49.5237766 94,48.4218724 L93.4047619,46.9893971 C93.1666667,45.0059696 92.0952381,44.2346367 90.0714286,43.6836847 C89.8333333,43.242923 90.3095238,43.5734943 90.0714286,43.1327326 C88.2857143,43.5734943 91.3809524,42.4715901 89.7142857,43.3531134 C89.7142857,43.3531134 89.5952381,43.4633038 89.5952381,43.4633038 L87.8095238,44.1244463 C86.5,44.6753984 87.5714286,43.9040655 86.9761905,44.565208 C85.7857143,45.7773025 86.1428571,44.3448272 85.3095238,45.8874929 L84,47.6505395 L84,47.7607299 Z" id="Path" fill="#00B0FF"></path>
                    <path d="M151.103358,162.631033 C151.413432,163.843861 150.793284,162.361515 152.033579,163.843861 L154.514168,165.865241 C155.134315,166 155.754462,165.865241 156.477968,166 C156.684683,165.460965 156.37461,165.326207 156.788041,164.652413 C156.994757,164.248137 158.648483,163.170067 157.718262,158.857789 C157.511546,158.72303 157.511546,159.262065 157.098115,158.588272 C156.37461,157.510202 155.237673,156.70165 154.100736,157.105926 C153.377231,157.375443 153.687305,157.240685 153.273873,157.510202 C153.273873,157.510202 152.757084,157.914478 152.757084,157.914478 L152.44701,158.183995 C150.483211,159.935859 151.826863,161.957239 151.206716,162.631033 L151,162.631033 L151.103358,162.631033 Z" id="Path" fill="#00B0FF"></path>
                    <path d="M169,96.3609402 C169.913043,98.7122739 167.695652,98.9889014 170.565217,101.616863 C171.73913,102.723373 170.956522,101.755176 171.478261,103 C172.26087,102.585059 173.565217,102.031804 174.608696,102.585059 C175.130435,101.063608 174.869565,101.89349 175.130435,101.755176 C178.130435,100.648666 175.26087,101.616863 178,99.5421564 C177.347826,98.7122739 177.347826,98.9889014 177.347826,97.8823914 C177.217391,96.7758815 177.73913,97.6057639 176.956522,96.3609402 C176.304348,95.2544303 175,93.8712928 173.956522,94.0096065 C173.695652,94.0096065 173.826087,94.0096065 173.304348,94.1479203 L172.782609,94.1479203 C169.652174,94.5628615 170.695652,95.8076852 169.26087,96.3609402 L169,96.3609402 Z" id="Path" fill="#00B0FF"></path>
                    <path d="M175.666667,100.097222 C175.180556,100.486111 176.055556,100.291667 175.180556,100.875 C174.402778,101.361111 174.694444,100.777778 174.111111,101.555556 L173.625,100.777778 C172.555556,102.041667 172.263889,101.069444 171.777778,100.680556 L171.388889,101.263889 C171.097222,101.652778 171.194444,101.263889 171,101.652778 C171.388889,102.236111 171.680556,102.527778 172.166667,103.208333 C174.888889,107.388889 173.527778,106.708333 175.958333,107 C175.569444,106.222222 175.763889,106.805556 175.277778,106.125 C175.861111,104.083333 175.861111,105.055556 176.736111,105.055556 C177.611111,103.597222 176.25,104.277778 178,103.888889 L177.805556,101.847222 C177.416667,100.388889 176.736111,101.652778 177.125,100.194444 C176.152778,100.291667 176.347222,100.680556 175.666667,100 L175.666667,100.097222 Z" id="Path" fill="#00B0FF"></path>
                </g>
            </g>
        </g>
    </g>
</svg>