<?xml version="1.0" encoding="UTF-8"?>
<svg width="55px" height="32px" viewBox="0 0 55 32" version="1.1" xmlns="http://www.w3.org/2000/svg" xmlns:xlink="http://www.w3.org/1999/xlink">
    <!-- Generator: Sketch 57.1 (83088) - https://sketch.com -->
    <title>Mixcloud-Icon-01</title>
    <desc>Created with Sketch.</desc>
    <g id="Design" stroke="none" stroke-width="1" fill="none" fill-rule="evenodd">
        <g id="Home" transform="translate(-778.000000, -778.000000)" fill="#FFFFFF" fill-rule="nonzero">
            <g id="Group-2" transform="translate(449.000000, 778.000000)">
                <g id="Mixcloud-Icon-01" transform="translate(329.647019, 0.000000)">
                    <path d="M49.5111111,31.9259259 C49.1703704,31.9259259 48.8148148,31.8222222 48.5185185,31.6148148 C47.6888889,31.0666667 47.4666667,29.9407407 48.0296296,29.1259259 C49.6888889,26.6518519 50.562963,23.7481481 50.562963,20.7407407 C50.562963,17.7333333 49.6888889,14.8296296 48.0296296,12.3555556 C47.4814815,11.5259259 47.6888889,10.4148148 48.5185185,9.86666667 C49.3481481,9.31851852 50.4592593,9.54074074 51.0074074,10.3555556 C53.0666667,13.4222222 54.1481481,17.0222222 54.1481481,20.7407407 C54.1481481,24.4592593 53.0666667,28.0592593 51.0074074,31.1259259 C50.6518519,31.6592593 50.0888889,31.9259259 49.5111111,31.9259259 Z" id="XMLID_11_"></path>
                    <path d="M44.3703704,29.0074074 C44.0296296,29.0074074 43.6740741,28.9037037 43.362963,28.6962963 C42.5481481,28.1333333 42.3259259,27.0222222 42.8888889,26.1925926 C43.9851852,24.5777778 44.562963,22.6962963 44.562963,20.7259259 C44.562963,18.7703704 43.9851852,16.8888889 42.8888889,15.2592593 C42.3259259,14.4444444 42.5481481,13.3185185 43.362963,12.7555556 C44.1925926,12.1925926 45.3037037,12.4148148 45.8518519,13.2444444 C47.3481481,15.4666667 48.1481481,18.0444444 48.1481481,20.7259259 C48.1481481,23.4074074 47.3481481,25.9851852 45.8518519,28.2074074 C45.5111111,28.7407407 44.9481481,29.0074074 44.3703704,29.0074074 Z" id="XMLID_12_"></path>
                    <path d="M35.9555556,12.9185185 C35.2444444,5.71851852 29.1555556,0.0740740741 21.762963,0.0740740741 C15.6444444,0.0740740741 10.2074074,4 8.26666667,9.73333333 C3.64444444,10.4148148 0.0888888889,14.4 0.0888888889,19.2 C0.0888888889,24.4740741 4.38518519,28.7703704 9.68888889,28.7703704 L34.2518519,28.7703704 C38.6814815,28.7703704 42.2814815,25.1703704 42.2814815,20.7407407 C42.2666667,16.9185185 39.5555556,13.7037037 35.9555556,12.9185185 Z M34.237037,25.1703704 L9.67407407,25.1703704 C6.37037037,25.1703704 3.67407407,22.4888889 3.67407407,19.1851852 C3.67407407,15.8814815 6.37037037,13.2 9.67407407,13.2 C11.2740741,13.2 12.7851852,13.8222222 13.9111111,14.9481481 C14.6074074,15.6444444 15.7481481,15.6444444 16.4592593,14.9481481 C17.1555556,14.2518519 17.1555556,13.1111111 16.4592593,12.4 C15.2296296,11.1555556 13.7037037,10.3111111 12.0444444,9.8962963 C13.7481481,6.14814815 17.5407407,3.64444444 21.762963,3.64444444 C27.6444444,3.64444444 32.4444444,8.42962963 32.4444444,14.2962963 C32.4444444,15.437037 32.2666667,16.562963 31.9111111,17.6296296 C31.6,18.5777778 32.1037037,19.5851852 33.0518519,19.8962963 C33.2444444,19.9555556 33.437037,19.9851852 33.6148148,19.9851852 C34.3703704,19.9851852 35.0666667,19.5111111 35.3185185,18.7555556 C35.5555556,18.0444444 35.7333333,17.3185185 35.8518519,16.5925926 C37.5111111,17.2296296 38.6814815,18.8444444 38.6814815,20.7111111 C38.6666667,23.1851852 36.6814815,25.1703704 34.237037,25.1703704 Z" id="XMLID_15_"></path>
                </g>
            </g>
        </g>
    </g>
</svg>