<?xml version="1.0" encoding="UTF-8"?>
<svg width="32px" height="32px" viewBox="0 0 32 32" version="1.1" xmlns="http://www.w3.org/2000/svg" xmlns:xlink="http://www.w3.org/1999/xlink">
    <!-- Generator: Sketch 57.1 (83088) - https://sketch.com -->
    <title>Patreon-01</title>
    <desc>Created with Sketch.</desc>
    <g id="Design" stroke="none" stroke-width="1" fill="none" fill-rule="evenodd">
        <g id="Home" transform="translate(-449.000000, -778.000000)">
            <g id="Group-2" transform="translate(449.000000, 778.000000)">
                <g id="Patreon-01" transform="translate(0.000000, 0.000000)">
                    <circle id="Oval" fill="#FFFFFF" cx="15.36" cy="16" r="13.44"></circle>
                    <rect id="Rectangle" fill="#FFFFFF" x="3.2" y="21.76" width="5.76" height="10.24"></rect>
                    <path d="M0.043715847,15.5628415 C0.043715847,8.13114754 6.0852459,1.16284153 14.0415301,0.174863388 C19.7508197,-0.489617486 24.0612022,1.70491803 27.042623,4.55519126 C29.831694,7.20437158 31.484153,10.5967213 31.8863388,14.5748634 C32.2185792,18.5530055 31.3530055,22.0065574 29.0360656,25.2590164 C26.7103825,28.4415301 22.1377049,31.9562842 16.4284153,31.9562842 L8.66448087,31.9562842 L8.66448087,16.620765 C8.73442623,13.2371585 9.86229508,10.3169399 13.9715847,8.92677596 C17.5562842,7.86885246 21.7355191,9.85355191 22.9945355,13.6393443 C24.3234973,17.6874317 22.4,20.4065574 20.1442623,22.0677596 C17.8885246,23.7289617 14.3737705,23.7289617 12.0480874,22.1377049 L12.0480874,27.3748634 C13.5781421,28.1005464 15.5016393,28.3016393 16.8918033,28.2404372 C21.936612,27.5060109 25.8448087,24.6557377 27.5060109,20.3453552 C29.2284153,15.7639344 28.0393443,10.4568306 24.4546448,7.1431694 C20.1442623,3.6284153 15.431694,2.76284153 10.3868852,5.21967213 C6.87213115,7.01202186 4.41530055,10.6579235 3.82076503,14.6360656 L3.82076503,31.947541 L0.113661202,31.947541 L0.043715847,15.5628415 Z" id="XMLID_3_" fill="#FF5900" fill-rule="nonzero"></path>
                </g>
            </g>
        </g>
    </g>
</svg>