<?xml version="1.0" encoding="UTF-8"?>
<svg width="32px" height="32px" viewBox="0 0 32 32" version="1.1" xmlns="http://www.w3.org/2000/svg" xmlns:xlink="http://www.w3.org/1999/xlink">
    <!-- Generator: Sketch 57.1 (83088) - https://sketch.com -->
    <title>soundcloud</title>
    <desc>Created with Sketch.</desc>
    <g id="Design" stroke="none" stroke-width="1" fill="none" fill-rule="evenodd">
        <g id="Home" transform="translate(-959.000000, -778.000000)" fill-rule="nonzero">
            <g id="Group-2" transform="translate(449.000000, 778.000000)">
                <g id="soundcloud" transform="translate(510.007019, 0.000000)">
                    <circle id="Oval" fill="#FF6A22" cx="15.8861593" cy="15.8861593" r="15.8861593"></circle>
                    <path d="M4.73118584,19.492531 C4.72353982,19.5440708 4.68672566,19.580885 4.63886726,19.580885 C4.59100885,19.580885 4.55419469,19.5440708 4.54683186,19.4913982 L4.37890265,18.2346195 L4.54683186,16.956885 C4.5539115,16.903646 4.59072566,16.8668319 4.63886726,16.8668319 C4.68644248,16.8668319 4.72325664,16.903646 4.73118584,16.956885 L4.93111504,18.2360354 L4.73118584,19.492531 Z M5.58669027,20.256 C5.57876106,20.3106549 5.53911504,20.348885 5.49012389,20.348885 C5.44254867,20.348885 5.40092035,20.3106549 5.39440708,20.256 L5.16842478,18.2343363 L5.39440708,16.1673628 C5.40120354,16.1141239 5.44254867,16.0744779 5.49012389,16.0744779 C5.53911504,16.0744779 5.57876106,16.1132743 5.58669027,16.1673628 L5.84382301,18.2343363 L5.58669027,20.256 Z M6.50987611,20.5983717 C6.50336283,20.6640708 6.4540885,20.7107965 6.39490265,20.7107965 C6.33373451,20.7107965 6.28530973,20.6640708 6.27936283,20.5983717 L6.06499115,18.2360354 L6.27936283,15.7839292 C6.28474336,15.7173805 6.33373451,15.6698053 6.39490265,15.6698053 C6.4540885,15.6698053 6.50307965,15.7173805 6.50987611,15.7839292 L6.75313274,18.2360354 L6.50987611,20.5983717 Z M7.44212389,20.6734159 C7.43532743,20.7487434 7.37642478,20.8056637 7.30647788,20.8056637 C7.23483186,20.8056637 7.17621239,20.7487434 7.17026549,20.6734159 L6.96778761,18.2360354 L7.17026549,15.716531 C7.17621239,15.6406372 7.23483186,15.5837168 7.30647788,15.5837168 C7.37642478,15.5837168 7.43532743,15.6406372 7.44212389,15.716531 L7.67178761,18.2360354 L7.44212389,20.6734159 Z M8.37946903,20.6929558 C8.37465487,20.7804602 8.30640708,20.8453097 8.22569912,20.8453097 C8.14244248,20.8453097 8.07646018,20.7804602 8.07079646,20.6929558 L7.87936283,18.2357522 L8.07079646,15.8983363 C8.07674336,15.8113982 8.14244248,15.7465487 8.22569912,15.7465487 C8.30782301,15.7465487 8.37465487,15.8113982 8.37946903,15.8972035 L8.59638938,18.2357522 L8.37946903,20.6929558 Z M9.32587611,20.6943717 L9.32587611,20.6929558 C9.32021239,20.7898053 9.24346903,20.8662655 9.15115044,20.8662655 C9.05854867,20.8662655 8.98180531,20.7895221 8.97642478,20.6943717 L8.79773451,18.2371681 L8.97642478,14.4342655 C8.98180531,14.3374159 9.05854867,14.2609558 9.15115044,14.2609558 C9.24375221,14.2609558 9.32049558,14.3376991 9.32587611,14.4328496 L9.52835398,18.2371681 L9.32587611,20.6943717 Z M10.2652035,20.6929558 L10.2652035,20.6915398 C10.2595398,20.7985841 10.1748673,20.883823 10.0700885,20.883823 C9.96729204,20.883823 9.88233628,20.7985841 9.87723894,20.6915398 L9.70846018,18.2501947 L9.87723894,13.5773451 C9.88233628,13.4703009 9.96729204,13.3856283 10.0700885,13.3856283 C10.1748673,13.3856283 10.2595398,13.4703009 10.2652035,13.5773451 L10.4552212,18.2501947 L10.2652035,20.6929558 Z M11.239646,20.655292 L11.239646,20.6538761 C11.2353982,20.7730973 11.1416637,20.8656991 11.0264071,20.8656991 C10.9111504,20.8656991 10.8174159,20.7730973 10.8131681,20.655292 L10.6565664,18.2388673 C10.6565664,18.2388673 10.8131681,13.1766372 10.8131681,13.1752212 C10.8176991,13.0574159 10.9111504,12.963115 11.0264071,12.963115 C11.1416637,12.963115 11.2356814,13.0574159 11.239646,13.1752212 L11.4166372,18.2388673 L11.239646,20.655292 Z M12.2084248,20.6391504 C12.2038938,20.7688496 12.1022301,20.8705133 11.975646,20.8705133 C11.8487788,20.8705133 11.747115,20.7688496 11.7425841,20.6402832 L11.5964602,18.2383009 L11.7425841,13.0055929 C11.747115,12.8753274 11.8487788,12.7739469 11.975646,12.7739469 C12.1022301,12.7739469 12.204177,12.8753274 12.2084248,13.0055929 L12.3706903,18.2383009 L12.2084248,20.6391504 Z M13.1834336,20.6179115 L13.1834336,20.6164956 C13.1789027,20.7566726 13.0693097,20.8679646 12.9302655,20.8679646 C12.7932035,20.8679646 12.6813451,20.7566726 12.6787965,20.6179115 L12.5445664,18.2388673 L12.6773805,13.139823 C12.6813451,12.9976637 12.7929204,12.8877876 12.9302655,12.8877876 C13.0693097,12.8877876 13.1789027,12.9976637 13.1834336,13.139823 L13.3340885,18.2388673 L13.1834336,20.6179115 Z M14.1663717,20.6037522 L14.1663717,20.6017699 C14.1641062,20.7544071 14.043469,20.8719292 13.8945133,20.8719292 C13.7444248,20.8719292 13.6254867,20.7544071 13.6209558,20.6037522 L13.4997522,18.2385841 L13.6212389,13.3261593 C13.6257699,13.1738053 13.744708,13.0545841 13.8947965,13.0545841 C14.0437522,13.0545841 14.1643894,13.1738053 14.1666549,13.3261593 L14.304,18.24 L14.1663717,20.6037522 Z M15.1691327,20.3542655 L15.1569558,20.5859115 C15.1555398,20.6666195 15.1215575,20.7396814 15.0697345,20.792354 C15.0164956,20.844177 14.9434336,20.8773097 14.8661239,20.8773097 C14.7760708,20.8773097 14.6967788,20.8359646 14.6424071,20.7708319 C14.6021947,20.7235398 14.5772743,20.6623717 14.5744425,20.5980885 C14.5735929,20.5952566 14.5735929,20.5915752 14.5735929,20.5876106 C14.5735929,20.5876106 14.4617345,18.2411327 14.4617345,18.2371681 L14.572177,12.448 L14.5735929,12.3924956 C14.5744425,12.291115 14.6282478,12.2007788 14.7086726,12.1489558 C14.7536991,12.1189381 14.8069381,12.1013805 14.8664071,12.1013805 C14.9247434,12.1013805 14.9799646,12.1195044 15.0261239,12.1515044 C15.1045664,12.2038938 15.155823,12.2919646 15.1572389,12.3927788 L15.2801416,18.24 L15.1691327,20.3542655 Z M16.1435752,20.5556106 L16.1435752,20.5527788 C16.1415929,20.723823 16.0014159,20.8631504 15.8320708,20.8631504 C15.6621593,20.8631504 15.5222655,20.723823 15.5205664,20.5541947 L15.4562832,19.4129558 L15.3931327,18.2411327 L15.5205664,11.8960708 L15.5205664,11.8640708 C15.5208496,11.7677876 15.5661593,11.6816991 15.6361062,11.623646 C15.6896283,11.5797522 15.7584425,11.5531327 15.8320708,11.5531327 C15.8906903,11.5531327 15.9450619,11.5692743 15.9915044,11.5964602 C16.0801416,11.6519646 16.1421593,11.7502301 16.1449912,11.8626549 L16.2829027,18.2408496 L16.1435752,20.5556106 Z M24.5635398,20.8693805 C24.5635398,20.8693805 16.7241062,20.8693805 16.7158938,20.8693805 C16.5465487,20.8521062 16.4126018,20.7173097 16.4097699,20.5437168 L16.4097699,11.5599292 C16.4126018,11.3945487 16.4695221,11.3093097 16.6824779,11.227469 C17.2321416,11.0145133 17.8545841,10.8887788 18.4943009,10.8887788 C21.1038584,10.8887788 23.2421947,12.8906195 23.4690265,15.440708 C23.804885,15.300531 24.1758584,15.2206726 24.5635398,15.2206726 C26.1261593,15.2206726 27.3931327,16.4882124 27.3931327,18.0519646 C27.3931327,19.6154336 26.1261593,20.8693805 24.5635398,20.8693805 L24.5635398,20.8693805 Z" id="Shape" fill="#F1F2F2"></path>
                </g>
            </g>
        </g>
    </g>
</svg>