<?xml version="1.0" encoding="UTF-8"?>
<svg width="32px" height="32px" viewBox="0 0 32 32" version="1.1" xmlns="http://www.w3.org/2000/svg" xmlns:xlink="http://www.w3.org/1999/xlink">
    <!-- Generator: Sketch 57.1 (83088) - https://sketch.com -->
    <title>spotify</title>
    <desc>Created with Sketch.</desc>
    <g id="Design" stroke="none" stroke-width="1" fill="none" fill-rule="evenodd">
        <g id="Home" transform="translate(-528.000000, -778.000000)">
            <g id="Group-2" transform="translate(449.000000, 778.000000)">
                <g id="spotify" transform="translate(78.980000, 0.000000)">
                    <circle id="Oval" fill="#FFFFFF" cx="16.018207" cy="16" r="13.44"></circle>
                    <path d="M15.9869907,0 C7.15760748,0 0,7.15760748 0,15.9869907 C0,24.8163738 7.15760748,31.9739813 15.9869907,31.9739813 C24.8163738,31.9739813 31.9739813,24.8163738 31.9739813,15.9869907 C31.9739813,7.15760748 24.8163738,0 15.9869907,0 Z M22.9447477,23.2014953 C22.7414579,23.5493084 22.3756262,23.7432523 21.9998505,23.7433271 C21.812486,23.7433271 21.622729,23.6951028 21.449271,23.5937944 C18.5763738,21.9148411 15.2574953,21.6450093 12.9786168,21.7143178 C10.4542804,21.7911028 8.60306542,22.2894206 8.5846729,22.2945047 C8.00276636,22.4534579 7.40142056,22.111028 7.24179439,21.5291963 C7.08224299,20.9474393 7.42347664,20.3464673 8.00508411,20.186243 C8.08852336,20.1632897 10.0805981,19.6222056 12.8507664,19.5308411 C14.4824673,19.4770093 16.0533084,19.590729 17.519028,19.868785 C19.3754766,20.2209346 21.0689346,20.8391028 22.5524486,21.7060935 C23.0737944,22.0106916 23.2493458,22.6802991 22.9447477,23.2014953 Z M24.9771963,18.9802617 C24.7364486,19.3922991 24.3031028,19.6219813 23.8579439,19.6220561 C23.6360374,19.6220561 23.411215,19.5650093 23.205757,19.4449346 C19.8028411,17.4561495 15.8714019,17.1366729 13.1721121,17.2186916 C10.1819065,17.3096822 7.98908411,17.8999626 7.9673271,17.9059439 C7.27820561,18.0939813 6.56575701,17.6886729 6.3766729,16.9994766 C6.18766355,16.3102804 6.59192523,15.5985047 7.28082243,15.4086729 C7.37966355,15.3814579 9.73928972,14.740486 13.0206355,14.6322991 C14.9535701,14.5685981 16.8142056,14.7032523 18.5503551,15.0325981 C20.7493832,15.4497944 22.7552897,16.1819813 24.5125234,17.2088972 C25.1300935,17.5697196 25.3380935,18.3628411 24.9771963,18.9802617 Z M26.2266168,15.1421308 C25.9543925,15.1421308 25.6786542,15.0721495 25.4266168,14.9248598 C17.3363738,10.196785 6.84179439,13.0076262 6.73674766,13.0366355 C5.89091589,13.2696822 5.01652336,12.7729346 4.7835514,11.9271776 C4.55050467,11.0814206 5.04725234,10.2069533 5.89300935,9.97398131 C6.01420561,9.94056075 8.90856075,9.15439252 12.9334579,9.02168224 C15.3045234,8.94362617 17.5866916,9.10871028 19.7162617,9.5126729 C22.4136075,10.0243738 24.8741682,10.9224673 27.0295327,12.1821308 C27.7869159,12.6247477 28.0420935,13.5975327 27.5994766,14.3549159 C27.3041495,14.8603364 26.7726355,15.1421308 26.2266168,15.1421308 Z" id="Shape" fill="#00D95F" fill-rule="nonzero"></path>
                </g>
            </g>
        </g>
    </g>
</svg>