<?xml version="1.0" encoding="UTF-8"?>
<svg width="47px" height="32px" viewBox="0 0 47 32" version="1.1" xmlns="http://www.w3.org/2000/svg" xmlns:xlink="http://www.w3.org/1999/xlink">
    <!-- Generator: Sketch 57.1 (83088) - https://sketch.com -->
    <title>youtube</title>
    <desc>Created with Sketch.</desc>
    <g id="Design" stroke="none" stroke-width="1" fill="none" fill-rule="evenodd">
        <g id="Home" transform="translate(-606.000000, -778.000000)" fill-rule="nonzero">
            <g id="Group-2" transform="translate(449.000000, 778.000000)">
                <g id="youtube" transform="translate(157.960000, 0.000000)">
                    <path d="M44.6977716,5 C44.1716574,3.04491641 42.6302228,1.50383011 40.6754875,0.97736771 C37.1041087,0 22.8185933,0 22.8185933,0 C22.8185933,0 8.53342618,0 4.96204738,0.940111421 C3.04491641,1.46622565 1.46587739,3.04526458 0.939763253,5 C0,8.57103064 0,15.9770195 0,15.9770195 C0,15.9770195 0,23.4202646 0.939763253,26.954039 C1.46622565,28.9087743 3.00731196,30.4502089 4.96239554,30.9766713 C8.57103064,31.954039 22.8189415,31.954039 22.8189415,31.954039 C22.8189415,31.954039 37.1041087,31.954039 40.6754875,31.0139276 C42.6305711,30.4878133 44.1716574,28.9463789 44.6981198,26.9916435 C45.6380749,23.4202646 45.6380749,16.0146239 45.6380749,16.0146239 C45.6380749,16.0146239 45.6754875,8.57103064 44.6977716,5 Z" id="Path" fill="#FF0000"></path>
                    <polygon id="Path" fill="#FFFFFF" points="18.270195 22.8189415 30.1493732 15.9770195 18.270195 9.13509749"></polygon>
                </g>
            </g>
        </g>
    </g>
</svg>